<?xml version="1.0" encoding="utf-8"?>
<!-- Generator: Adobe Illustrator 27.5.0, SVG Export Plug-In . SVG Version: 6.00 Build 0)  -->
<svg version="1.1" xmlns="http://www.w3.org/2000/svg" xmlns:xlink="http://www.w3.org/1999/xlink" x="0px" y="0px"
	 viewBox="0 0 500 500" style="enable-background:new 0 0 500 500;" xml:space="preserve">
<g id="Background_Simple">
	<g>
		<path style="fill:#92E3A9;" d="M455.667,244.815c-7.803-47.238-28.158-91.524-59.43-127.777
			c-18.216-21.117-41.906-44.093-70.395-62.251C254,9,165,22,128,68S24,319,29,373s151,103,246,91s176-73,184-140
			C462.136,297.735,459.74,269.473,455.667,244.815z"/>
		<path style="opacity:0.7;fill:#FFFFFF;" d="M455.667,244.815c-7.803-47.238-28.158-91.524-59.43-127.777
			c-18.216-21.117-41.906-44.093-70.395-62.251C254,9,165,22,128,68S24,319,29,373s151,103,246,91s176-73,184-140
			C462.136,297.735,459.74,269.473,455.667,244.815z"/>
	</g>
</g>
<g id="Floor">
	<g>
		<line style="fill:none;stroke:#263238;stroke-miterlimit:10;" x1="396" y1="458" x2="472" y2="458"/>
		<line style="fill:none;stroke:#263238;stroke-miterlimit:10;" x1="118" y1="458" x2="387" y2="458"/>
		<line style="fill:none;stroke:#263238;stroke-miterlimit:10;" x1="32" y1="458" x2="107" y2="458"/>
	</g>
</g>
<g id="Graphics">
	<g style="opacity:0.3;">
		<g>
			<path style="fill:none;stroke:#000000;stroke-miterlimit:10;" d="M461.34,119.566l6.605,1.507l1.56-6.834l-6.165-1.407
				c0.014-0.265,0.04-0.526,0.04-0.795c0-2.085-0.427-4.07-1.196-5.875l4.95-3.948l-4.37-5.48L458,100.535
				c-1.745-1.461-3.83-2.52-6.115-3.068v-6.375h-7.01v6.375c-2.177,0.522-4.169,1.51-5.861,2.866l-5.334-4.254l-4.371,5.48
				l5.407,4.312c-0.818,1.81-1.289,3.807-1.324,5.915l-7.164,1.635l1.56,6.834l7.132-1.628c0.863,1.759,2.057,3.322,3.506,4.611
				l-3.285,6.822l6.315,3.041l3.158-6.558c1.205,0.312,2.462,0.495,3.765,0.495c0.732,0,1.445-0.07,2.149-0.171l3.178,6.599
				l6.315-3.041l-2.968-6.163C458.798,123.022,460.26,121.421,461.34,119.566z M437.735,112.038c0-5.879,4.766-10.645,10.645-10.645
				c5.879,0,10.645,4.766,10.645,10.645c0,5.879-4.766,10.645-10.645,10.645C442.501,122.683,437.735,117.917,437.735,112.038z"/>
			<path style="fill:none;stroke:#000000;stroke-miterlimit:10;" d="M461.34,164.862l6.605,1.508l1.56-6.834l-6.165-1.407
				c0.014-0.265,0.04-0.526,0.04-0.795c0-2.085-0.427-4.07-1.196-5.875l4.95-3.948l-4.37-5.48L458,145.83
				c-1.745-1.461-3.83-2.52-6.115-3.068v-6.375h-7.01v6.375c-2.177,0.522-4.169,1.51-5.861,2.866l-5.334-4.254l-4.371,5.48
				l5.407,4.312c-0.818,1.81-1.289,3.807-1.324,5.915l-7.164,1.635l1.56,6.834l7.132-1.628c0.863,1.76,2.057,3.322,3.506,4.611
				l-3.285,6.822l6.315,3.041l3.158-6.558c1.205,0.312,2.462,0.496,3.765,0.496c0.732,0,1.445-0.07,2.149-0.171l3.178,6.599
				l6.315-3.041l-2.968-6.163C458.798,168.318,460.26,166.717,461.34,164.862z M437.735,157.334c0-5.879,4.766-10.645,10.645-10.645
				c5.879,0,10.645,4.766,10.645,10.645c0,5.879-4.766,10.645-10.645,10.645C442.501,167.979,437.735,163.213,437.735,157.334z"/>
			<path style="fill:none;stroke:#000000;stroke-miterlimit:10;" d="M291.594,406.27l5.182,1.183l1.224-5.362l-4.837-1.104
				c0.011-0.208,0.031-0.413,0.031-0.623c0-1.636-0.335-3.194-0.939-4.609l3.884-3.097l-3.429-4.3l-3.738,2.981
				c-1.369-1.146-3.005-1.977-4.798-2.407v-5.002h-5.5v5.002c-1.708,0.41-3.271,1.185-4.599,2.248l-4.185-3.337l-3.429,4.3
				l4.243,3.383c-0.642,1.42-1.011,2.987-1.039,4.641l-5.621,1.283l1.224,5.362l5.596-1.277c0.677,1.381,1.614,2.606,2.751,3.618
				l-2.578,5.352l4.955,2.386l2.478-5.146c0.946,0.245,1.932,0.389,2.954,0.389c0.574,0,1.134-0.055,1.686-0.134l2.493,5.177
				l4.955-2.386l-2.329-4.835C289.599,408.982,290.746,407.726,291.594,406.27z M273.073,400.363c0-4.613,3.74-8.352,8.352-8.352
				c4.613,0,8.352,3.74,8.352,8.352c0,4.613-3.739,8.352-8.352,8.352C276.812,408.716,273.073,404.976,273.073,400.363z"/>
			<path style="fill:none;stroke:#000000;stroke-miterlimit:10;" d="M215.34,52.032l6.605,1.507l1.56-6.834l-6.165-1.407
				c0.014-0.265,0.04-0.526,0.04-0.795c0-2.085-0.427-4.07-1.196-5.875l4.95-3.948l-4.37-5.48L212,33
				c-1.745-1.461-3.83-2.52-6.115-3.068v-6.375h-7.01v6.375c-2.177,0.522-4.169,1.51-5.861,2.865l-5.334-4.253l-4.37,5.48
				l5.407,4.312c-0.818,1.81-1.289,3.807-1.324,5.915l-7.164,1.635l1.56,6.834l7.132-1.628c0.863,1.76,2.057,3.322,3.506,4.611
				l-3.285,6.822l6.315,3.041l3.158-6.558c1.205,0.312,2.462,0.496,3.765,0.496c0.732,0,1.445-0.07,2.149-0.171l3.178,6.599
				l6.315-3.041l-2.968-6.163C212.798,55.487,214.26,53.887,215.34,52.032z M191.735,44.504c0-5.879,4.766-10.645,10.645-10.645
				c5.879,0,10.645,4.766,10.645,10.645c0,5.879-4.766,10.645-10.645,10.645C196.501,55.149,191.735,50.383,191.735,44.504z"/>
		</g>
		<g>
			<path style="fill:none;stroke:#000000;stroke-miterlimit:10;" d="M96.545,169.926l5.593,1.277l1.321-5.787l-5.221-1.192
				c0.012-0.224,0.034-0.446,0.034-0.673c0-1.766-0.362-3.447-1.013-4.975l4.192-3.343l-3.701-4.641l-4.034,3.217
				c-1.478-1.237-3.243-2.134-5.178-2.598v-5.398h-5.936v5.398c-1.843,0.442-3.531,1.279-4.964,2.427l-4.517-3.602l-3.701,4.641
				L74,158.329c-0.693,1.533-1.092,3.224-1.121,5.009l-6.067,1.385l1.321,5.787l6.04-1.378c0.731,1.49,1.742,2.813,2.969,3.905
				l-2.782,5.777l5.348,2.576l2.675-5.554c1.021,0.264,2.085,0.42,3.188,0.42c0.62,0,1.224-0.059,1.82-0.145l2.691,5.588
				l5.348-2.576l-2.513-5.219C94.392,172.853,95.631,171.497,96.545,169.926z M76.556,163.551c0-4.979,4.036-9.015,9.015-9.015
				c4.979,0,9.015,4.036,9.015,9.015c0,4.979-4.036,9.015-9.015,9.015C80.592,172.566,76.556,168.53,76.556,163.551z"/>
			<path style="fill:none;stroke:#000000;stroke-miterlimit:10;" d="M69.434,145.495l7.732,1.765l1.826-8l-7.217-1.647
				c0.016-0.31,0.047-0.616,0.047-0.93c0-2.441-0.5-4.765-1.4-6.877l5.795-4.621l-5.116-6.415l-5.577,4.447
				c-2.042-1.71-4.483-2.95-7.158-3.591v-7.462H50.16v7.462c-2.548,0.611-4.881,1.768-6.861,3.354L37.055,118l-5.116,6.415
				l6.33,5.048c-0.958,2.119-1.509,4.457-1.55,6.924l-8.387,1.914l1.826,8l8.349-1.906c1.01,2.06,2.408,3.889,4.104,5.398
				l-3.846,7.986l7.393,3.56l3.697-7.677c1.411,0.365,2.882,0.58,4.408,0.58c0.856,0,1.692-0.082,2.516-0.2l3.72,7.724l7.393-3.56
				l-3.474-7.214C66.457,149.54,68.169,147.667,69.434,145.495z M41.801,136.682c0-6.882,5.579-12.461,12.461-12.461
				c6.882,0,12.461,5.579,12.461,12.461c0,6.882-5.579,12.461-12.461,12.461C47.38,149.144,41.801,143.564,41.801,136.682z"/>
		</g>
		<g>
			<g>
				<polygon style="fill:none;stroke:#000000;stroke-miterlimit:10;" points="180.573,335.35 182.712,341.932 189.632,341.932 
					184.033,346 186.172,352.582 180.573,348.514 174.974,352.582 177.113,346 171.514,341.932 178.434,341.932 				"/>
				<polygon style="fill:none;stroke:#000000;stroke-miterlimit:10;" points="202.945,335.35 205.084,341.932 212.004,341.932 
					206.405,346 208.544,352.582 202.945,348.514 197.346,352.582 199.485,346 193.886,341.932 200.807,341.932 				"/>
				<polygon style="fill:none;stroke:#000000;stroke-miterlimit:10;" points="225.317,335.35 227.456,341.932 234.376,341.932 
					228.777,346 230.916,352.582 225.317,348.514 219.718,352.582 221.857,346 216.258,341.932 223.179,341.932 				"/>
				<polygon style="fill:none;stroke:#000000;stroke-miterlimit:10;" points="247.689,335.35 249.828,341.932 256.748,341.932 
					251.149,346 253.288,352.582 247.689,348.514 242.09,352.582 244.229,346 238.63,341.932 245.551,341.932 				"/>
				<polygon style="fill:none;stroke:#000000;stroke-miterlimit:10;" points="270.061,335.35 272.2,341.932 279.12,341.932 
					273.522,346 275.66,352.582 270.061,348.514 264.462,352.582 266.601,346 261.002,341.932 267.923,341.932 				"/>
			</g>
			<path style="fill:none;stroke:#000000;stroke-miterlimit:10;" d="M277.5,361h-106c-4.142,0-7.5-3.358-7.5-7.5v-17
				c0-4.142,3.358-7.5,7.5-7.5h106c4.142,0,7.5,3.358,7.5,7.5v17C285,357.642,281.642,361,277.5,361z"/>
		</g>
		<g>
			<g>
				<polygon style="fill:none;stroke:#000000;stroke-miterlimit:10;" points="39.203,228.809 40.551,232.956 44.911,232.956 
					41.383,235.52 42.731,239.667 39.203,237.104 35.675,239.667 37.023,235.52 33.495,232.956 37.856,232.956 				"/>
				<polygon style="fill:none;stroke:#000000;stroke-miterlimit:10;" points="53.299,228.809 54.647,232.956 59.007,232.956 
					55.479,235.52 56.827,239.667 53.299,237.104 49.771,239.667 51.119,235.52 47.591,232.956 51.952,232.956 				"/>
				<polygon style="fill:none;stroke:#000000;stroke-miterlimit:10;" points="67.395,228.809 68.743,232.956 73.103,232.956 
					69.576,235.52 70.923,239.667 67.395,237.104 63.868,239.667 65.215,235.52 61.687,232.956 66.048,232.956 				"/>
				<polygon style="fill:none;stroke:#000000;stroke-miterlimit:10;" points="81.491,228.809 82.839,232.956 87.199,232.956 
					83.672,235.52 85.019,239.667 81.491,237.104 77.964,239.667 79.311,235.52 75.783,232.956 80.144,232.956 				"/>
				<polygon style="fill:none;stroke:#000000;stroke-miterlimit:10;" points="95.588,228.809 96.935,232.956 101.295,232.956 
					97.768,235.52 99.115,239.667 95.588,237.104 92.06,239.667 93.407,235.52 89.88,232.956 94.24,232.956 				"/>
			</g>
			<path style="fill:none;stroke:#000000;stroke-miterlimit:10;" d="M97.5,244.971H36.261c-4.142,0-7.5-3.358-7.5-7.5v-5.162
				c0-4.142,3.358-7.5,7.5-7.5H97.5c4.142,0,7.5,3.358,7.5,7.5v5.162C105,241.613,101.642,244.971,97.5,244.971z"/>
		</g>
	</g>
</g>
<g id="Plants">
	<g>
		<path style="fill:#263238;" d="M104.532,347.24c0.046,0.029,0.955-3.491,0.987-3.72c0.368-2.647-0.475-7.978-3.17-9.28
			c-1.941-0.938-4.112,0.19-4.819,2.134c-0.722,1.985,0.194,4.421,1.279,6.097C100.082,344.438,104.529,347.237,104.532,347.24z"/>
		<path style="fill:#263238;" d="M51.397,346.084c2.147,0.938,7.401,0.82,7.405,0.82c0.055-0.001-1.129-3.439-1.228-3.647
			c-1.153-2.411-4.798-6.392-7.764-5.992c-2.137,0.289-3.325,2.427-2.842,4.439C47.46,343.758,49.568,345.284,51.397,346.084z"/>
		<path style="fill:#263238;" d="M53.21,361.3c2.228,0.325,6.916-1.035,7.289-1.144c0.74,2.624,1.712,5.257,2.843,7.867
			c0.645,1.493,1.341,2.977,2.057,4.456c-0.428-0.627-0.815-1.183-0.877-1.255c-1.749-2.021-6.316-4.898-9.07-3.729
			c-1.985,0.843-2.566,3.219-1.569,5.032c1.018,1.852,3.454,2.767,5.429,3.055c2.004,0.292,6.025-0.787,7.085-1.087
			c0.281,0.564,0.555,1.131,0.838,1.694c1.358,2.703,2.724,5.395,3.983,8.076c0.445,0.945,0.847,1.891,1.254,2.837
			c-0.381-0.556-0.706-1.021-0.762-1.087c-1.749-2.021-6.315-4.898-9.07-3.729c-1.985,0.843-2.566,3.219-1.569,5.032
			c1.018,1.851,3.454,2.767,5.429,3.055c1.913,0.279,5.632-0.684,6.894-1.034c0.387,0.981,0.777,1.963,1.107,2.931
			c0.211,0.666,0.46,1.293,0.635,1.974c0.187,0.67,0.372,1.334,0.556,1.991c0.307,1.279,0.631,2.596,0.899,3.852
			c0.193,0.871,0.361,1.705,0.532,2.545c-0.431-0.945-1.314-2.779-1.406-2.923c-1.422-2.263-5.5-5.799-8.401-5.06
			c-2.089,0.533-3.024,2.793-2.314,4.736c0.726,1.984,2.995,3.258,4.904,3.842c2.102,0.642,6.755,0.055,7.336-0.022
			c0.279,1.39,0.537,2.745,0.76,4.028c0.784,4.444,1.267,8.175,1.569,10.787c0.054,0.464,0.099,0.878,0.141,1.269h-9.007L72.688,458
			h17.958l1.984-38.71h-8.392c0.063-0.129,0.121-0.249,0.186-0.385c1.152-2.399,2.748-5.846,4.473-10.064
			c0.548-1.331,1.107-2.765,1.667-4.243c0.563,0.118,5.17,1.054,7.316,0.569c1.947-0.44,4.305-1.541,5.176-3.466
			c0.854-1.885,0.09-4.209-1.954-4.895c-2.837-0.953-7.167,2.269-8.754,4.419c-0.094,0.127-0.955,1.617-1.484,2.566
			c0.226-0.605,0.452-1.19,0.676-1.815c0.453-1.234,0.868-2.479,1.32-3.817c0.196-0.653,0.393-1.314,0.592-1.981
			c0.212-0.657,0.352-1.378,0.533-2.073c0.385-1.62,0.698-3.28,0.975-4.96c1.082,0.394,4.943,1.737,6.944,1.597
			c1.991-0.14,4.489-0.872,5.642-2.642c1.129-1.734,0.726-4.146-1.19-5.135c-2.66-1.372-7.429,1.157-9.323,3.043
			c-0.118,0.117-1.325,1.623-1.973,2.463c0.159-1.011,0.323-2.019,0.45-3.047c0.368-2.967,0.649-5.983,0.942-8.989
			c0.089-0.921,0.189-1.837,0.286-2.756c0.383,0.145,4.939,1.84,7.179,1.683c1.991-0.14,4.489-0.871,5.642-2.642
			c1.129-1.734,0.726-4.147-1.19-5.135c-2.66-1.372-7.429,1.157-9.323,3.042c-0.143,0.142-1.877,2.311-2.291,2.884
			c0.214-2.022,0.445-4.034,0.754-6.009c0.423-2.726,0.988-5.377,1.725-7.904c0.179,0.068,4.925,1.859,7.219,1.698
			c1.991-0.14,4.489-0.872,5.642-2.642c1.129-1.733,0.726-4.146-1.19-5.135c-2.66-1.372-7.428,1.157-9.323,3.042
			c-0.124,0.124-1.447,1.774-2.057,2.574c-0.084-0.043-0.068-0.035-0.152-0.079c0.823-2.698,1.959-5.208,3.139-7.505
			c0.681-1.332,1.406-2.567,2.139-3.752c0.85,0.424,4.755,2.32,6.836,2.404c1.995,0.079,4.558-0.373,5.898-2.006
			c1.312-1.599,1.177-4.042-0.619-5.235c-2.493-1.656-7.51,0.334-9.6,2c-0.113,0.091-1.167,1.14-1.924,1.914
			c0.339-0.53,0.679-1.083,1.013-1.585c1.252-1.885,2.515-3.535,3.645-4.986c0.649-0.82,1.253-1.549,1.824-2.225
			c1.051-0.019,5.286-0.147,7.138-1.016c1.807-0.848,3.873-2.431,4.31-4.499c0.428-2.024-0.818-4.129-2.962-4.36
			c-2.976-0.32-6.512,3.758-7.599,6.199c-0.094,0.211-1.184,3.68-1.129,3.679c0,0,0.051-0.001,0.063-0.001
			c-0.563,0.64-1.16,1.332-1.796,2.101c-1.164,1.43-2.466,3.056-3.764,4.922c-1.302,1.861-2.664,3.919-3.902,6.217
			c-1.245,2.302-2.437,4.786-3.334,7.505c-0.01,0.031-0.017,0.064-0.027,0.095c0.015-0.876-0.024-3.329-0.048-3.517
			c-0.343-2.65-2.565-7.57-5.508-8.114c-2.12-0.392-3.916,1.269-4.085,3.331c-0.172,2.106,1.354,4.213,2.843,5.543
			c1.679,1.5,6.339,2.952,6.711,3.066c-0.831,2.597-1.472,5.33-1.969,8.131c-0.286,1.601-0.524,3.223-0.742,4.851
			c-0.011-0.758-0.027-1.436-0.039-1.531c-0.344-2.65-2.565-7.57-5.508-8.114c-2.12-0.392-3.916,1.269-4.085,3.331
			c-0.173,2.106,1.354,4.213,2.843,5.543c1.511,1.349,5.459,2.667,6.508,3.002c-0.077,0.626-0.161,1.25-0.236,1.876
			c-0.359,3.003-0.704,6.002-1.133,8.933c-0.15,1.033-0.337,2.045-0.519,3.058c-0.011-0.674-0.025-1.241-0.036-1.327
			c-0.344-2.65-2.565-7.57-5.508-8.113c-2.12-0.392-3.916,1.269-4.085,3.331c-0.173,2.105,1.354,4.213,2.843,5.543
			c1.441,1.288,5.075,2.537,6.32,2.941c-0.219,1.032-0.435,2.065-0.694,3.055c-0.192,0.672-0.329,1.332-0.559,1.997
			c-0.214,0.662-0.425,1.318-0.635,1.967c-0.45,1.236-0.906,2.514-1.375,3.708c-0.32,0.833-0.64,1.621-0.96,2.416
			c0.162-1.027,0.437-3.043,0.44-3.214c0.041-1.775-0.589-4.661-1.844-6.69c0.007-0.262-0.008-0.524-0.049-0.783
			c-0.328-2.043-2.247-3.56-4.331-3.005c-2.892,0.77-4.727,5.846-4.864,8.515c-0.008,0.157,0.095,1.875,0.178,2.959
			c-0.146-0.629-0.28-1.242-0.438-1.887c-0.303-1.279-0.643-2.547-1.005-3.912c-0.197-0.653-0.397-1.312-0.599-1.979
			c-0.185-0.665-0.466-1.344-0.698-2.023c-0.572-1.564-1.228-3.121-1.923-4.675c1.119-0.268,5.081-1.278,6.672-2.499
			c1.584-1.215,3.263-3.203,3.248-5.316c-0.015-2.069-1.681-3.859-3.825-3.626c-2.975,0.323-5.558,5.063-6.097,7.681
			c-0.034,0.163-0.21,2.085-0.286,3.142c-0.425-0.931-0.845-1.862-1.306-2.79c-1.33-2.678-2.759-5.347-4.173-8.017
			c-0.434-0.818-0.856-1.637-1.282-2.456c0.399-0.091,5.135-1.19,6.916-2.557c1.584-1.215,3.263-3.203,3.248-5.316
			c-0.015-2.069-1.681-3.859-3.825-3.626c-2.975,0.323-5.558,5.063-6.098,7.681c-0.041,0.197-0.29,2.963-0.319,3.669
			c-0.937-1.804-1.854-3.61-2.686-5.428c-1.151-2.507-2.142-5.029-2.921-7.544c0.186-0.042,5.133-1.166,6.958-2.566
			c1.584-1.215,3.263-3.203,3.248-5.316c-0.015-2.069-1.682-3.859-3.825-3.626c-2.976,0.323-5.558,5.063-6.098,7.68
			c-0.036,0.172-0.228,2.28-0.296,3.284c-0.093,0.01-0.076,0.008-0.17,0.018c-0.803-2.705-1.239-5.425-1.522-7.993
			c-0.167-1.486-0.244-2.916-0.286-4.31c0.943-0.115,5.246-0.688,7.027-1.766c1.708-1.034,3.595-2.825,3.813-4.927
			c0.212-2.058-1.248-4.021-3.404-4.024c-2.993-0.006-6.08,4.422-6.904,6.964c-0.045,0.138-0.345,1.594-0.549,2.657
			c-0.01-0.629-0.032-1.278-0.029-1.881c0.004-2.263,0.147-4.335,0.289-6.169c0.089-1.043,0.19-1.983,0.294-2.862
			c0.866-0.596,4.328-3.039,5.393-4.785c1.039-1.704,1.889-4.164,1.113-6.129c-0.76-1.924-2.96-2.993-4.876-2.003
			c-2.659,1.374-3.358,6.726-2.918,9.363c0.038,0.228,1.042,3.722,1.088,3.692c0,0,0.042-0.029,0.052-0.036
			c-0.117,0.844-0.233,1.751-0.339,2.743c-0.182,1.835-0.371,3.91-0.424,6.182c-0.059,2.27-0.059,4.739,0.175,7.338
			c0.231,2.606,0.607,5.336,1.359,8.099c0.009,0.031,0.022,0.063,0.03,0.094c-0.471-0.74-1.856-2.764-1.98-2.907
			c-1.749-2.021-6.315-4.898-9.07-3.729c-1.985,0.843-2.566,3.219-1.569,5.032C48.799,360.097,51.235,361.013,53.21,361.3z
			 M82.887,400.525c1.532,1.659,5.457,3.6,5.965,3.847c-0.534,1.313-1.067,2.586-1.588,3.779c-1.798,4.139-3.453,7.518-4.642,9.863
			c-0.24,0.473-0.455,0.891-0.656,1.276h-0.199c-0.059-0.457-0.124-0.958-0.201-1.52c-0.363-2.636-0.933-6.392-1.822-10.862
			c-0.278-1.413-0.602-2.917-0.95-4.459C79.145,402.31,81.129,401.507,82.887,400.525z"/>
		<path style="opacity:0.3;fill:#263238;" d="M51.397,346.084c2.147,0.938,7.401,0.82,7.405,0.82
			c0.055-0.001-1.129-3.439-1.228-3.647c-1.153-2.411-4.798-6.392-7.764-5.992c-2.137,0.289-3.325,2.427-2.842,4.439
			C47.46,343.758,49.568,345.284,51.397,346.084z"/>
		<path style="opacity:0.3;fill:#263238;" d="M104.532,347.24c0.046,0.029,0.955-3.491,0.987-3.72
			c0.368-2.647-0.475-7.978-3.17-9.28c-1.941-0.938-4.112,0.19-4.819,2.134c-0.722,1.985,0.194,4.421,1.279,6.097
			C100.082,344.438,104.529,347.237,104.532,347.24z"/>
		<path style="opacity:0.3;fill:#263238;" d="M53.21,361.3c2.228,0.325,6.916-1.035,7.289-1.144c0.74,2.624,1.712,5.257,2.843,7.867
			c0.645,1.493,1.341,2.977,2.057,4.456c-0.428-0.627-0.815-1.183-0.877-1.255c-1.749-2.021-6.316-4.898-9.07-3.729
			c-1.985,0.843-2.566,3.219-1.569,5.032c1.018,1.852,3.454,2.767,5.429,3.055c2.004,0.292,6.025-0.787,7.085-1.087
			c0.281,0.564,0.555,1.131,0.838,1.694c1.358,2.703,2.724,5.395,3.983,8.076c0.445,0.945,0.847,1.891,1.254,2.837
			c-0.381-0.556-0.706-1.021-0.762-1.087c-1.749-2.021-6.315-4.898-9.07-3.729c-1.985,0.843-2.566,3.219-1.569,5.032
			c1.018,1.851,3.454,2.767,5.429,3.055c1.913,0.279,5.632-0.684,6.894-1.034c0.387,0.981,0.777,1.963,1.107,2.931
			c0.211,0.666,0.46,1.293,0.635,1.974c0.187,0.67,0.372,1.334,0.556,1.991c0.307,1.279,0.631,2.596,0.899,3.852
			c0.193,0.871,0.361,1.705,0.532,2.545c-0.431-0.945-1.314-2.779-1.406-2.923c-1.422-2.263-5.5-5.799-8.401-5.06
			c-2.089,0.533-3.024,2.793-2.314,4.736c0.726,1.984,2.995,3.258,4.904,3.842c2.102,0.642,6.755,0.055,7.336-0.022
			c0.279,1.39,0.537,2.745,0.76,4.028c0.784,4.444,1.267,8.175,1.569,10.787c0.054,0.464,0.099,0.878,0.141,1.269h-9.007L72.688,458
			h17.958l1.984-38.71h-8.392c0.063-0.129,0.121-0.249,0.186-0.385c1.152-2.399,2.748-5.846,4.473-10.064
			c0.548-1.331,1.107-2.765,1.667-4.243c0.563,0.118,5.17,1.054,7.316,0.569c1.947-0.44,4.305-1.541,5.176-3.466
			c0.854-1.885,0.09-4.209-1.954-4.895c-2.837-0.953-7.167,2.269-8.754,4.419c-0.094,0.127-0.955,1.617-1.484,2.566
			c0.226-0.605,0.452-1.19,0.676-1.815c0.453-1.234,0.868-2.479,1.32-3.817c0.196-0.653,0.393-1.314,0.592-1.981
			c0.212-0.657,0.352-1.378,0.533-2.073c0.385-1.62,0.698-3.28,0.975-4.96c1.082,0.394,4.943,1.737,6.944,1.597
			c1.991-0.14,4.489-0.872,5.642-2.642c1.129-1.734,0.726-4.146-1.19-5.135c-2.66-1.372-7.429,1.157-9.323,3.043
			c-0.118,0.117-1.325,1.623-1.973,2.463c0.159-1.011,0.323-2.019,0.45-3.047c0.368-2.967,0.649-5.983,0.942-8.989
			c0.089-0.921,0.189-1.837,0.286-2.756c0.383,0.145,4.939,1.84,7.179,1.683c1.991-0.14,4.489-0.871,5.642-2.642
			c1.129-1.734,0.726-4.147-1.19-5.135c-2.66-1.372-7.429,1.157-9.323,3.042c-0.143,0.142-1.877,2.311-2.291,2.884
			c0.214-2.022,0.445-4.034,0.754-6.009c0.423-2.726,0.988-5.377,1.725-7.904c0.179,0.068,4.925,1.859,7.219,1.698
			c1.991-0.14,4.489-0.872,5.642-2.642c1.129-1.733,0.726-4.146-1.19-5.135c-2.66-1.372-7.428,1.157-9.323,3.042
			c-0.124,0.124-1.447,1.774-2.057,2.574c-0.084-0.043-0.068-0.035-0.152-0.079c0.823-2.698,1.959-5.208,3.139-7.505
			c0.681-1.332,1.406-2.567,2.139-3.752c0.85,0.424,4.755,2.32,6.836,2.404c1.995,0.079,4.558-0.373,5.898-2.006
			c1.312-1.599,1.177-4.042-0.619-5.235c-2.493-1.656-7.51,0.334-9.6,2c-0.113,0.091-1.167,1.14-1.924,1.914
			c0.339-0.53,0.679-1.083,1.013-1.585c1.252-1.885,2.515-3.535,3.645-4.986c0.649-0.82,1.253-1.549,1.824-2.225
			c1.051-0.019,5.286-0.147,7.138-1.016c1.807-0.848,3.873-2.431,4.31-4.499c0.428-2.024-0.818-4.129-2.962-4.36
			c-2.976-0.32-6.512,3.758-7.599,6.199c-0.094,0.211-1.184,3.68-1.129,3.679c0,0,0.051-0.001,0.063-0.001
			c-0.563,0.64-1.16,1.332-1.796,2.101c-1.164,1.43-2.466,3.056-3.764,4.922c-1.302,1.861-2.664,3.919-3.902,6.217
			c-1.245,2.302-2.437,4.786-3.334,7.505c-0.01,0.031-0.017,0.064-0.027,0.095c0.015-0.876-0.024-3.329-0.048-3.517
			c-0.343-2.65-2.565-7.57-5.508-8.114c-2.12-0.392-3.916,1.269-4.085,3.331c-0.172,2.106,1.354,4.213,2.843,5.543
			c1.679,1.5,6.339,2.952,6.711,3.066c-0.831,2.597-1.472,5.33-1.969,8.131c-0.286,1.601-0.524,3.223-0.742,4.851
			c-0.011-0.758-0.027-1.436-0.039-1.531c-0.344-2.65-2.565-7.57-5.508-8.114c-2.12-0.392-3.916,1.269-4.085,3.331
			c-0.173,2.106,1.354,4.213,2.843,5.543c1.511,1.349,5.459,2.667,6.508,3.002c-0.077,0.626-0.161,1.25-0.236,1.876
			c-0.359,3.003-0.704,6.002-1.133,8.933c-0.15,1.033-0.337,2.045-0.519,3.058c-0.011-0.674-0.025-1.241-0.036-1.327
			c-0.344-2.65-2.565-7.57-5.508-8.113c-2.12-0.392-3.916,1.269-4.085,3.331c-0.173,2.105,1.354,4.213,2.843,5.543
			c1.441,1.288,5.075,2.537,6.32,2.941c-0.219,1.032-0.435,2.065-0.694,3.055c-0.192,0.672-0.329,1.332-0.559,1.997
			c-0.214,0.662-0.425,1.318-0.635,1.967c-0.45,1.236-0.906,2.514-1.375,3.708c-0.32,0.833-0.64,1.621-0.96,2.416
			c0.162-1.027,0.437-3.043,0.44-3.214c0.041-1.775-0.589-4.661-1.844-6.69c0.007-0.262-0.008-0.524-0.049-0.783
			c-0.328-2.043-2.247-3.56-4.331-3.005c-2.892,0.77-4.727,5.846-4.864,8.515c-0.008,0.157,0.095,1.875,0.178,2.959
			c-0.146-0.629-0.28-1.242-0.438-1.887c-0.303-1.279-0.643-2.547-1.005-3.912c-0.197-0.653-0.397-1.312-0.599-1.979
			c-0.185-0.665-0.466-1.344-0.698-2.023c-0.572-1.564-1.228-3.121-1.923-4.675c1.119-0.268,5.081-1.278,6.672-2.499
			c1.584-1.215,3.263-3.203,3.248-5.316c-0.015-2.069-1.681-3.859-3.825-3.626c-2.975,0.323-5.558,5.063-6.097,7.681
			c-0.034,0.163-0.21,2.085-0.286,3.142c-0.425-0.931-0.845-1.862-1.306-2.79c-1.33-2.678-2.759-5.347-4.173-8.017
			c-0.434-0.818-0.856-1.637-1.282-2.456c0.399-0.091,5.135-1.19,6.916-2.557c1.584-1.215,3.263-3.203,3.248-5.316
			c-0.015-2.069-1.681-3.859-3.825-3.626c-2.975,0.323-5.558,5.063-6.098,7.681c-0.041,0.197-0.29,2.963-0.319,3.669
			c-0.937-1.804-1.854-3.61-2.686-5.428c-1.151-2.507-2.142-5.029-2.921-7.544c0.186-0.042,5.133-1.166,6.958-2.566
			c1.584-1.215,3.263-3.203,3.248-5.316c-0.015-2.069-1.682-3.859-3.825-3.626c-2.976,0.323-5.558,5.063-6.098,7.68
			c-0.036,0.172-0.228,2.28-0.296,3.284c-0.093,0.01-0.076,0.008-0.17,0.018c-0.803-2.705-1.239-5.425-1.522-7.993
			c-0.167-1.486-0.244-2.916-0.286-4.31c0.943-0.115,5.246-0.688,7.027-1.766c1.708-1.034,3.595-2.825,3.813-4.927
			c0.212-2.058-1.248-4.021-3.404-4.024c-2.993-0.006-6.08,4.422-6.904,6.964c-0.045,0.138-0.345,1.594-0.549,2.657
			c-0.01-0.629-0.032-1.278-0.029-1.881c0.004-2.263,0.147-4.335,0.289-6.169c0.089-1.043,0.19-1.983,0.294-2.862
			c0.866-0.596,4.328-3.039,5.393-4.785c1.039-1.704,1.889-4.164,1.113-6.129c-0.76-1.924-2.96-2.993-4.876-2.003
			c-2.659,1.374-3.358,6.726-2.918,9.363c0.038,0.228,1.042,3.722,1.088,3.692c0,0,0.042-0.029,0.052-0.036
			c-0.117,0.844-0.233,1.751-0.339,2.743c-0.182,1.835-0.371,3.91-0.424,6.182c-0.059,2.27-0.059,4.739,0.175,7.338
			c0.231,2.606,0.607,5.336,1.359,8.099c0.009,0.031,0.022,0.063,0.03,0.094c-0.471-0.74-1.856-2.764-1.98-2.907
			c-1.749-2.021-6.315-4.898-9.07-3.729c-1.985,0.843-2.566,3.219-1.569,5.032C48.799,360.097,51.235,361.013,53.21,361.3z
			 M82.887,400.525c1.532,1.659,5.457,3.6,5.965,3.847c-0.534,1.313-1.067,2.586-1.588,3.779c-1.798,4.139-3.453,7.518-4.642,9.863
			c-0.24,0.473-0.455,0.891-0.656,1.276h-0.199c-0.059-0.457-0.124-0.958-0.201-1.52c-0.363-2.636-0.933-6.392-1.822-10.862
			c-0.278-1.413-0.602-2.917-0.95-4.459C79.145,402.31,81.129,401.507,82.887,400.525z"/>
	</g>
</g>
<g id="Page">
	<rect x="72" y="56" style="opacity:0.3;" width="349" height="258"/>
	<g>
		<rect x="80.646" y="46" style="fill:#FFFFFF;stroke:#263238;stroke-miterlimit:10;" width="352.754" height="259.17"/>
		<rect x="80.646" y="46" style="fill:#92E3A9;stroke:#263238;stroke-miterlimit:10;" width="58.118" height="259.17"/>
		<g>
			
				<rect x="80.646" y="46" style="fill:#263238;stroke:#263238;stroke-linecap:round;stroke-linejoin:round;stroke-miterlimit:10;" width="352.754" height="21.279"/>
			<path style="fill:#FFFFFF;stroke:#263238;stroke-linecap:round;stroke-linejoin:round;stroke-miterlimit:10;" d="M96.935,96.379
				c0-3.235-2.622-5.858-5.858-5.858s-5.858,2.622-5.858,5.858s2.623,5.858,5.858,5.858S96.935,99.614,96.935,96.379z"/>
			
				<line style="fill:none;stroke:#263238;stroke-linecap:round;stroke-linejoin:round;stroke-miterlimit:10;" x1="101.816" y1="96.867" x2="130.617" y2="96.867"/>
			<path style="fill:#FFFFFF;stroke:#263238;stroke-linecap:round;stroke-linejoin:round;stroke-miterlimit:10;" d="M96.935,123.226
				c0-3.235-2.622-5.858-5.858-5.858s-5.858,2.623-5.858,5.858c0,3.235,2.623,5.858,5.858,5.858S96.935,126.461,96.935,123.226z"/>
			
				<line style="fill:none;stroke:#263238;stroke-linecap:round;stroke-linejoin:round;stroke-miterlimit:10;" x1="101.816" y1="123.714" x2="130.617" y2="123.714"/>
			<path style="fill:#FFFFFF;stroke:#263238;stroke-linecap:round;stroke-linejoin:round;stroke-miterlimit:10;" d="M96.935,150.074
				c0-3.235-2.622-5.858-5.858-5.858s-5.858,2.623-5.858,5.858c0,3.235,2.623,5.858,5.858,5.858S96.935,153.309,96.935,150.074z"/>
			
				<line style="fill:none;stroke:#263238;stroke-linecap:round;stroke-linejoin:round;stroke-miterlimit:10;" x1="101.816" y1="150.562" x2="130.617" y2="150.562"/>
			<path style="fill:#FFFFFF;stroke:#263238;stroke-linecap:round;stroke-linejoin:round;stroke-miterlimit:10;" d="M96.935,176.921
				c0-3.235-2.622-5.858-5.858-5.858s-5.858,2.623-5.858,5.858c0,3.235,2.623,5.858,5.858,5.858S96.935,180.156,96.935,176.921z"/>
			
				<line style="fill:none;stroke:#263238;stroke-linecap:round;stroke-linejoin:round;stroke-miterlimit:10;" x1="101.816" y1="177.41" x2="130.617" y2="177.41"/>
			<path style="fill:#FFFFFF;stroke:#263238;stroke-linecap:round;stroke-linejoin:round;stroke-miterlimit:10;" d="M96.935,203.769
				c0-3.235-2.622-5.858-5.858-5.858s-5.858,2.623-5.858,5.858c0,3.235,2.623,5.858,5.858,5.858S96.935,207.004,96.935,203.769z"/>
			
				<line style="fill:none;stroke:#263238;stroke-linecap:round;stroke-linejoin:round;stroke-miterlimit:10;" x1="101.816" y1="204.257" x2="130.617" y2="204.257"/>
			<g style="opacity:0.05;">
				<rect x="146.072" y="222.918" width="230.915" height="8.282"/>
				<rect x="146.072" y="237.533" width="230.915" height="8.282"/>
				<rect x="146.072" y="252.147" width="230.915" height="8.282"/>
				<rect x="146.072" y="266.762" width="230.915" height="8.282"/>
			</g>
			<g>
				<g>
					<g>
						<rect x="242.185" y="244.168" style="fill:#92E3A9;" width="13.24" height="38.671"/>
					</g>
				</g>
				<g>
					<g>
						<rect x="227.473" y="228.208" style="fill:#263238;" width="13.24" height="54.63"/>
					</g>
				</g>
				<g>
					<g>
						<rect x="212.762" y="247.851" style="fill:#92E3A9;" width="13.24" height="34.988"/>
					</g>
				</g>
				<g>
					<g>
						<rect x="198.051" y="268.721" style="fill:#263238;" width="13.24" height="14.118"/>
					</g>
				</g>
				<g>
					<g>
						<rect x="183.339" y="241.098" style="fill:#92E3A9;" width="13.24" height="41.74"/>
					</g>
				</g>
				<g>
					<g>
						<rect x="168.628" y="249.692" style="fill:#263238;" width="13.24" height="33.146"/>
					</g>
				</g>
				<g>
					<g>
						<rect x="153.917" y="270.562" style="fill:#92E3A9;" width="13.24" height="12.276"/>
					</g>
				</g>
			</g>
			<g>
				<g>
					<g>
						<rect x="273.043" y="244.168" style="fill:#263238;" width="13.24" height="38.671"/>
					</g>
				</g>
				<g>
					<g>
						<rect x="287.754" y="228.208" style="fill:#92E3A9;" width="13.24" height="54.63"/>
					</g>
				</g>
				<g>
					<g>
						<rect x="302.465" y="247.851" style="fill:#263238;" width="13.24" height="34.988"/>
					</g>
				</g>
				<g>
					<g>
						<rect x="317.177" y="268.721" style="fill:#92E3A9;" width="13.24" height="14.118"/>
					</g>
				</g>
				<g>
					<g>
						<rect x="331.888" y="241.098" style="fill:#263238;" width="13.24" height="41.74"/>
					</g>
				</g>
				<g>
					<g>
						<rect x="346.599" y="249.692" style="fill:#92E3A9;" width="13.24" height="33.146"/>
					</g>
				</g>
				<g>
					<g>
						<rect x="361.311" y="270.562" style="fill:#263238;" width="13.24" height="12.276"/>
					</g>
				</g>
			</g>
			<g>
				
					<line style="fill:none;stroke:#263238;stroke-linecap:round;stroke-linejoin:round;stroke-miterlimit:10;" x1="88.411" y1="241.808" x2="131.362" y2="241.808"/>
				
					<line style="fill:none;stroke:#263238;stroke-linecap:round;stroke-linejoin:round;stroke-miterlimit:10;" x1="88.411" y1="249.517" x2="131.362" y2="249.517"/>
				
					<line style="fill:none;stroke:#263238;stroke-linecap:round;stroke-linejoin:round;stroke-miterlimit:10;" x1="88.411" y1="257.226" x2="131.362" y2="257.226"/>
				
					<line style="fill:none;stroke:#263238;stroke-linecap:round;stroke-linejoin:round;stroke-miterlimit:10;" x1="88.411" y1="264.936" x2="131.362" y2="264.936"/>
				
					<line style="fill:none;stroke:#263238;stroke-linecap:round;stroke-linejoin:round;stroke-miterlimit:10;" x1="88.411" y1="272.645" x2="131.362" y2="272.645"/>
				
					<line style="fill:none;stroke:#263238;stroke-linecap:round;stroke-linejoin:round;stroke-miterlimit:10;" x1="88.411" y1="280.354" x2="131.362" y2="280.354"/>
			</g>
			<g>
				
					<line style="fill:none;stroke:#FFFFFF;stroke-linecap:round;stroke-linejoin:round;stroke-miterlimit:10;" x1="96.205" y1="52.79" x2="115.056" y2="52.79"/>
				
					<line style="fill:none;stroke:#FFFFFF;stroke-linecap:round;stroke-linejoin:round;stroke-miterlimit:10;" x1="96.205" y1="57.91" x2="115.056" y2="57.91"/>
				
					<line style="fill:none;stroke:#FFFFFF;stroke-linecap:round;stroke-linejoin:round;stroke-miterlimit:10;" x1="96.205" y1="63.031" x2="115.056" y2="63.031"/>
			</g>
			<g>
				<rect x="267.375" y="166.923" style="opacity:0.05;" width="110.128" height="44.595"/>
				<polygon style="fill:#92E3A9;" points="377.503,203.811 377.503,211.518 267.375,211.518 267.375,186.741 284.991,181.791 
					309.768,181.791 319.687,194.448 337.302,194.448 351.07,203.811 				"/>
				
					<line style="fill:none;stroke:#263238;stroke-linecap:round;stroke-linejoin:round;stroke-miterlimit:10;" x1="344.464" y1="175.179" x2="370.895" y2="175.179"/>
				<g>
					<path style="fill:#263238;" d="M351.304,192.56v2.258h-1.217v-2.258h-3.618v-1.136l3.475-7.814h1.361v7.814h0.897v1.136
						H351.304z M347.622,191.424h2.465v-5.476L347.622,191.424z"/>
					<path style="fill:#263238;" d="M354.41,188.174c0.352-0.609,0.913-0.929,1.665-0.929c1.44,0,2.082,1.057,2.082,2.658v2.193
						c0,1.714-0.817,2.835-2.53,2.835c-1.714,0-2.514-1.121-2.514-2.835v-0.752h1.168v0.833c0,1.009,0.417,1.617,1.313,1.617
						s1.313-0.608,1.313-1.617v-2.178c0-1.008-0.417-1.617-1.313-1.617c-0.689,0-1.153,0.384-1.264,1.201v0.256h-1.169l0.305-6.228
						h4.419v1.121h-3.298L354.41,188.174z"/>
					<path style="fill:#263238;" d="M362.494,185.355v3.539c0,1.089-0.512,1.809-1.6,1.809c-1.089,0-1.601-0.72-1.601-1.809v-3.539
						c0-1.073,0.512-1.809,1.601-1.809C361.982,183.546,362.494,184.283,362.494,185.355z M360.092,185.307v3.651
						c0,0.609,0.224,1.009,0.801,1.009c0.561,0,0.8-0.4,0.8-1.009v-3.651c0-0.608-0.24-1.025-0.8-1.025
						C360.317,184.283,360.092,184.699,360.092,185.307z M366.193,183.61l-4.42,11.208h-0.753l4.42-11.208H366.193z
						 M368.002,189.534v3.523c0,1.089-0.496,1.809-1.601,1.809c-1.089,0-1.6-0.721-1.6-1.809v-3.523c0-1.073,0.512-1.793,1.6-1.793
						C367.506,187.741,368.002,188.461,368.002,189.534z M365.6,189.486v3.635c0,0.608,0.241,1.025,0.8,1.025
						c0.56,0,0.801-0.416,0.801-1.025v-3.635c0-0.608-0.241-1.009-0.801-1.009C365.841,188.478,365.6,188.878,365.6,189.486z"/>
				</g>
			</g>
			<g>
				<g>
					<path style="fill:#263238;" d="M146.752,87.353v-7.35h-1.507v-0.83h3.915v0.83h-1.507v7.35H146.752z"/>
					<path style="fill:#263238;" d="M151.604,79.173c1.285,0,1.823,0.655,1.823,1.87v0.666c0,0.9-0.315,1.461-1.017,1.683
						c0.748,0.222,1.029,0.83,1.029,1.706v1.274c0,0.362,0.011,0.701,0.163,0.981h-0.923c-0.105-0.233-0.152-0.444-0.152-0.993
						v-1.285c0-0.923-0.432-1.215-1.192-1.215h-0.643v3.494h-0.911v-8.18H151.604z M151.37,83.029c0.725,0,1.157-0.234,1.157-1.122
						v-0.783c0-0.736-0.269-1.122-0.947-1.122h-0.888v3.027H151.37z"/>
					<path style="fill:#263238;" d="M157.298,82.795v0.818h-1.999v2.91h2.454v0.83h-3.365v-8.18h3.365v0.83h-2.454v2.793H157.298z"
						/>
					<path style="fill:#263238;" d="M159.403,87.353h-0.818v-8.18h1.157l1.893,5.913v-5.913h0.806v8.18h-0.947l-2.092-6.614V87.353z
						"/>
					<path style="fill:#263238;" d="M165.295,79.173c1.273,0,1.858,0.771,1.858,2.033v4.125c0,1.25-0.584,2.021-1.858,2.021h-1.917
						v-8.18H165.295z M165.283,86.523c0.655,0,0.97-0.409,0.97-1.157v-4.206c0-0.748-0.315-1.157-0.981-1.157h-0.982v6.521H165.283z
						"/>
				</g>
				<g>
					<g>
						<g style="opacity:0.3;">
							
								<line style="fill:none;stroke:#000000;stroke-width:0.5;stroke-linecap:round;stroke-linejoin:round;stroke-miterlimit:10;" x1="145.154" y1="147.966" x2="145.154" y2="144.021"/>
							<g>
								
									<line style="opacity:0.3;fill:none;stroke:#000000;stroke-width:0.5;stroke-linecap:round;stroke-linejoin:round;stroke-miterlimit:10;" x1="144.168" y1="134.653" x2="423.492" y2="134.653"/>
								
									<line style="opacity:0.3;fill:none;stroke:#000000;stroke-width:0.5;stroke-linecap:round;stroke-linejoin:round;stroke-miterlimit:10;" x1="144.168" y1="143.775" x2="423.492" y2="143.775"/>
								
									<line style="opacity:0.3;fill:none;stroke:#000000;stroke-width:0.5;stroke-linecap:round;stroke-linejoin:round;stroke-miterlimit:10;" x1="144.168" y1="126.024" x2="423.492" y2="126.024"/>
								
									<line style="opacity:0.3;fill:none;stroke:#000000;stroke-width:0.5;stroke-linecap:round;stroke-linejoin:round;stroke-miterlimit:10;" x1="144.168" y1="117.396" x2="423.492" y2="117.396"/>
								
									<line style="opacity:0.3;fill:none;stroke:#000000;stroke-width:0.5;stroke-linecap:round;stroke-linejoin:round;stroke-miterlimit:10;" x1="144.168" y1="108.767" x2="423.492" y2="108.767"/>
								
									<line style="opacity:0.3;fill:none;stroke:#000000;stroke-width:0.5;stroke-linecap:round;stroke-linejoin:round;stroke-miterlimit:10;" x1="144.168" y1="100.138" x2="423.492" y2="100.138"/>
								
									<line style="opacity:0.3;fill:none;stroke:#000000;stroke-width:0.5;stroke-linecap:round;stroke-linejoin:round;stroke-miterlimit:10;" x1="144.168" y1="91.509" x2="423.492" y2="91.509"/>
								
									<line style="opacity:0.3;fill:none;stroke:#000000;stroke-width:0.5;stroke-linecap:round;stroke-linejoin:round;stroke-miterlimit:10;" x1="168.164" y1="147.966" x2="168.164" y2="144.021"/>
							</g>
							
								<line style="fill:none;stroke:#000000;stroke-width:0.5;stroke-linecap:round;stroke-linejoin:round;stroke-miterlimit:10;" x1="191.174" y1="147.966" x2="191.174" y2="144.021"/>
							
								<line style="fill:none;stroke:#000000;stroke-width:0.5;stroke-linecap:round;stroke-linejoin:round;stroke-miterlimit:10;" x1="214.184" y1="147.966" x2="214.184" y2="144.021"/>
							
								<line style="fill:none;stroke:#000000;stroke-width:0.5;stroke-linecap:round;stroke-linejoin:round;stroke-miterlimit:10;" x1="237.194" y1="147.966" x2="237.194" y2="144.021"/>
							
								<line style="fill:none;stroke:#000000;stroke-width:0.5;stroke-linecap:round;stroke-linejoin:round;stroke-miterlimit:10;" x1="260.204" y1="147.966" x2="260.204" y2="144.021"/>
							
								<line style="fill:none;stroke:#000000;stroke-width:0.5;stroke-linecap:round;stroke-linejoin:round;stroke-miterlimit:10;" x1="283.214" y1="147.966" x2="283.214" y2="144.021"/>
							
								<line style="fill:none;stroke:#000000;stroke-width:0.5;stroke-linecap:round;stroke-linejoin:round;stroke-miterlimit:10;" x1="306.224" y1="147.966" x2="306.224" y2="144.021"/>
							
								<line style="fill:none;stroke:#000000;stroke-width:0.5;stroke-linecap:round;stroke-linejoin:round;stroke-miterlimit:10;" x1="329.233" y1="147.966" x2="329.233" y2="144.021"/>
							
								<line style="fill:none;stroke:#000000;stroke-width:0.5;stroke-linecap:round;stroke-linejoin:round;stroke-miterlimit:10;" x1="352.243" y1="147.966" x2="352.243" y2="144.021"/>
							
								<line style="fill:none;stroke:#000000;stroke-width:0.5;stroke-linecap:round;stroke-linejoin:round;stroke-miterlimit:10;" x1="375.253" y1="147.966" x2="375.253" y2="144.021"/>
							
								<line style="fill:none;stroke:#000000;stroke-width:0.5;stroke-linecap:round;stroke-linejoin:round;stroke-miterlimit:10;" x1="398.263" y1="147.966" x2="398.263" y2="144.021"/>
							
								<line style="fill:none;stroke:#000000;stroke-width:0.5;stroke-linecap:round;stroke-linejoin:round;stroke-miterlimit:10;" x1="421.273" y1="147.966" x2="421.273" y2="144.021"/>
						</g>
						<polygon style="fill:#92E3A9;" points="419.857,142.344 419.857,93.17 419.982,88.76 405.248,91.756 386.758,97.673 
							364.324,100.138 340.903,107.041 318.715,104.329 293.568,97.18 269.408,108.242 250.424,101.124 225.031,104.329 
							203.829,95.454 179.423,129.722 156.495,102.357 145.098,113.631 145.098,142.344 						"/>
						<polygon style="opacity:0.5;fill:#FFFFFF;" points="419.857,142.344 419.857,93.17 419.982,88.76 405.248,91.756 
							386.758,97.673 364.324,100.138 340.903,107.041 318.715,104.329 293.568,97.18 269.408,108.242 250.424,101.124 
							225.031,104.329 203.829,95.454 179.423,129.722 156.495,102.357 145.098,113.631 145.098,142.344 						"/>
						<polygon style="opacity:0.15;" points="420.053,142.344 420.053,125.807 420.112,123.784 405.248,117.774 386.758,113.583 
							364.324,116.049 340.903,120.24 318.715,117.035 293.568,114.569 269.408,115.062 250.424,120.486 225.031,124.924 
							203.829,120.486 179.423,122.705 156.495,125.17 145.401,126.649 144.877,126.649 144.877,142.344 						"/>
						<g>
							<circle style="fill:#263238;" cx="156.495" cy="125.17" r="1.479"/>
							<path style="fill:#263238;" d="M180.902,122.705c0-0.817-0.662-1.479-1.479-1.479c-0.817,0-1.479,0.662-1.479,1.479
								c0,0.817,0.662,1.479,1.479,1.479C180.239,124.184,180.902,123.522,180.902,122.705z"/>
							<circle style="fill:#263238;" cx="203.829" cy="120.486" r="1.479"/>
							<circle style="fill:#263238;" cx="225.031" cy="124.924" r="1.479"/>
							<circle style="fill:#263238;" cx="250.424" cy="120.486" r="1.479"/>
							<circle style="fill:#263238;" cx="269.408" cy="115.062" r="1.479"/>
							<circle style="fill:#263238;" cx="293.568" cy="114.569" r="1.479"/>
							<path style="fill:#263238;" d="M320.194,117.035c0-0.817-0.662-1.479-1.479-1.479c-0.817,0-1.479,0.662-1.479,1.479
								c0,0.817,0.662,1.479,1.479,1.479C319.532,118.514,320.194,117.852,320.194,117.035z"/>
							<circle style="fill:#263238;" cx="340.903" cy="120.24" r="1.479"/>
							<circle style="fill:#263238;" cx="364.324" cy="116.049" r="1.479"/>
							<circle style="fill:#263238;" cx="386.758" cy="113.583" r="1.479"/>
							<path style="fill:#263238;" d="M406.728,117.774c0-0.817-0.662-1.479-1.479-1.479c-0.817,0-1.479,0.662-1.479,1.479
								c0,0.817,0.662,1.479,1.479,1.479C406.065,119.254,406.728,118.591,406.728,117.774z"/>
						</g>
						<g style="opacity:0.3;">
							<circle cx="156.495" cy="102.357" r="1.479"/>
							<circle cx="179.423" cy="129.722" r="1.479"/>
							<path d="M205.309,95.454c0-0.817-0.662-1.479-1.479-1.479c-0.817,0-1.479,0.662-1.479,1.479c0,0.817,0.662,1.479,1.479,1.479
								C204.646,96.933,205.309,96.271,205.309,95.454z"/>
							<circle cx="225.031" cy="104.329" r="1.479"/>
							<path d="M251.904,101.124c0-0.817-0.662-1.479-1.479-1.479c-0.817,0-1.479,0.662-1.479,1.479
								c0,0.817,0.662,1.479,1.479,1.479C251.242,102.604,251.904,101.941,251.904,101.124z"/>
							<circle cx="269.408" cy="107.655" r="1.479"/>
							<circle cx="293.568" cy="97.18" r="1.479"/>
							<circle cx="318.715" cy="104.329" r="1.479"/>
							<circle cx="340.903" cy="107.041" r="1.479"/>
							<circle cx="364.324" cy="100.138" r="1.479"/>
							<circle cx="386.758" cy="97.673" r="1.479"/>
							<circle cx="405.248" cy="91.756" r="1.479"/>
						</g>
					</g>
					<g>
						<path style="fill:#263238;" d="M401.964,85.183v2.258h-1.217v-2.258h-3.618v-1.136l3.475-7.814h1.361v7.814h0.897v1.136
							H401.964z M398.282,84.047h2.465V78.57L398.282,84.047z"/>
						<path style="fill:#263238;" d="M405.07,80.796c0.352-0.609,0.913-0.929,1.665-0.929c1.441,0,2.082,1.057,2.082,2.658v2.193
							c0,1.714-0.817,2.834-2.53,2.834c-1.714,0-2.514-1.121-2.514-2.834v-0.752h1.168v0.833c0,1.009,0.417,1.617,1.313,1.617
							s1.313-0.608,1.313-1.617v-2.178c0-1.009-0.417-1.617-1.313-1.617c-0.689,0-1.153,0.384-1.264,1.201v0.256h-1.169l0.305-6.228
							h4.419v1.121h-3.298L405.07,80.796z"/>
						<path style="fill:#263238;" d="M413.154,77.978v3.539c0,1.089-0.512,1.809-1.6,1.809c-1.09,0-1.601-0.72-1.601-1.809v-3.539
							c0-1.073,0.512-1.809,1.601-1.809C412.642,76.169,413.154,76.905,413.154,77.978z M410.752,77.93v3.651
							c0,0.608,0.225,1.009,0.801,1.009c0.56,0,0.8-0.4,0.8-1.009V77.93c0-0.608-0.24-1.025-0.8-1.025
							C410.977,76.905,410.752,77.322,410.752,77.93z M416.853,76.233l-4.42,11.208h-0.753l4.42-11.208H416.853z M418.662,82.157
							v3.523c0,1.089-0.496,1.809-1.601,1.809c-1.089,0-1.6-0.721-1.6-1.809v-3.523c0-1.073,0.512-1.793,1.6-1.793
							C418.166,80.364,418.662,81.084,418.662,82.157z M416.26,82.109v3.635c0,0.608,0.241,1.025,0.8,1.025
							c0.56,0,0.801-0.416,0.801-1.025v-3.635c0-0.608-0.241-1.009-0.801-1.009C416.501,81.1,416.26,81.501,416.26,82.109z"/>
					</g>
					<g>
						<path style="fill:#263238;" d="M402.461,127.709c0,3.379-3.795,4.596-3.811,7.173v0.176h3.682v1.137h-4.915v-0.961
							c0-3.619,3.795-4.324,3.795-7.478c0-1.153-0.383-1.761-1.313-1.761c-0.913,0-1.312,0.657-1.312,1.649v0.992h-1.169v-0.913
							c0-1.713,0.785-2.85,2.514-2.85C401.676,124.875,402.461,125.996,402.461,127.709z"/>
						<path style="fill:#263238;" d="M403.516,127.693c0-1.714,0.849-2.818,2.562-2.818c1.729,0,2.578,1.105,2.578,2.818v5.78
							c0,1.714-0.849,2.834-2.578,2.834c-1.714,0-2.562-1.121-2.562-2.834V127.693z M404.749,133.553
							c0,1.008,0.432,1.617,1.329,1.617c0.912,0,1.328-0.609,1.328-1.617v-5.924c0-1.025-0.416-1.633-1.328-1.633
							c-0.897,0-1.329,0.609-1.329,1.633V133.553z"/>
						<path style="fill:#263238;" d="M412.978,126.732v3.539c0,1.089-0.512,1.809-1.6,1.809c-1.09,0-1.601-0.72-1.601-1.809v-3.539
							c0-1.073,0.512-1.809,1.601-1.809C412.466,124.923,412.978,125.659,412.978,126.732z M410.576,126.684v3.651
							c0,0.608,0.225,1.008,0.801,1.008c0.56,0,0.8-0.4,0.8-1.008v-3.651c0-0.608-0.24-1.025-0.8-1.025
							C410.801,125.659,410.576,126.076,410.576,126.684z M416.677,124.987l-4.42,11.208h-0.753l4.42-11.208H416.677z
							 M418.486,130.911v3.523c0,1.089-0.496,1.809-1.6,1.809c-1.089,0-1.601-0.721-1.601-1.809v-3.523
							c0-1.073,0.512-1.793,1.601-1.793C417.99,129.118,418.486,129.838,418.486,130.911z M416.084,130.863v3.635
							c0,0.608,0.241,1.025,0.801,1.025c0.56,0,0.8-0.416,0.8-1.025v-3.635c0-0.608-0.241-1.008-0.8-1.008
							C416.325,129.855,416.084,130.255,416.084,130.863z"/>
					</g>
				</g>
			</g>
			<g>
				<rect x="215.959" y="173.353" style="fill:#263238;" width="7.246" height="7.246"/>
				
					<line style="fill:none;stroke:#263238;stroke-linejoin:round;stroke-miterlimit:10;" x1="227.734" y1="176.976" x2="257.171" y2="176.976"/>
				<rect x="215.959" y="186.486" style="fill:#92E3A9;" width="7.246" height="7.246"/>
				
					<line style="fill:none;stroke:#263238;stroke-linejoin:round;stroke-miterlimit:10;" x1="227.734" y1="190.109" x2="257.171" y2="190.109"/>
				<rect x="215.959" y="199.62" style="fill:#7D7D7D;" width="7.246" height="7.246"/>
				
					<line style="fill:none;stroke:#263238;stroke-linejoin:round;stroke-miterlimit:10;" x1="227.734" y1="203.243" x2="257.171" y2="203.243"/>
				<g>
					<path style="fill:none;stroke:#92E3A9;stroke-width:7;stroke-linejoin:round;stroke-miterlimit:10;" d="M185.56,211.641
						c9.265-3.919,15.766-13.093,15.766-23.786c0-6.155-2.154-11.807-5.75-16.243"/>
					<path style="fill:none;stroke:#7D7D7D;stroke-width:7;stroke-linejoin:round;stroke-miterlimit:10;" d="M153.896,201.972
						c4.609,7.044,12.569,11.698,21.616,11.698c3.564,0,6.96-0.722,10.048-2.029"/>
					<path style="fill:none;stroke:#263238;stroke-width:7;stroke-linejoin:round;stroke-miterlimit:10;" d="M195.576,171.612
						c-4.733-5.839-11.963-9.571-20.064-9.571c-14.257,0-25.814,11.557-25.814,25.814c0,5.21,1.543,10.059,4.198,14.116"/>
					
						<line style="fill:none;stroke:#263238;stroke-linejoin:round;stroke-miterlimit:10;" x1="164.605" y1="185.038" x2="187.201" y2="185.038"/>
					
						<line style="fill:none;stroke:#263238;stroke-linejoin:round;stroke-miterlimit:10;" x1="164.605" y1="191.714" x2="187.201" y2="191.714"/>
				</g>
			</g>
			<g>
				<g>
					
						<line style="fill:none;stroke:#263238;stroke-linecap:round;stroke-linejoin:round;stroke-miterlimit:10;" x1="390.627" y1="182.808" x2="420.344" y2="182.808"/>
					
						<line style="fill:none;stroke:#263238;stroke-linecap:round;stroke-linejoin:round;stroke-miterlimit:10;" x1="390.627" y1="186.218" x2="420.344" y2="186.218"/>
				</g>
				<path style="fill:#92E3A9;" d="M417.941,166.905c-2.076-2.857-4.634-4.716-7.993-5.807c-3.358-1.091-6.521-1.091-9.879,0
					c-3.359,1.091-5.917,2.95-7.993,5.807c-2.076,2.857-3.053,5.864-3.053,9.396h15.985h15.985
					C420.994,172.769,420.016,169.762,417.941,166.905z"/>
				<g>
					<g>
						<g>
							
								<path style="fill:none;stroke:#FFFFFF;stroke-width:0.5;stroke-linecap:round;stroke-linejoin:round;stroke-miterlimit:10;" d="
								M405.009,176.301l12.932-9.396c2.076,2.857,3.053,5.864,3.053,9.396H405.009z"/>
						</g>
					</g>
					<g>
						<g>
							
								<path style="fill:none;stroke:#FFFFFF;stroke-width:0.5;stroke-linecap:round;stroke-linejoin:round;stroke-miterlimit:10;" d="
								M405.009,176.301l4.94-15.203c3.358,1.091,5.917,2.95,7.992,5.807L405.009,176.301z"/>
						</g>
					</g>
					<g>
						<g>
							
								<path style="fill:none;stroke:#FFFFFF;stroke-width:0.5;stroke-linecap:round;stroke-linejoin:round;stroke-miterlimit:10;" d="
								M405.009,176.301l-4.94-15.203c3.358-1.091,6.521-1.091,9.879,0L405.009,176.301z"/>
						</g>
					</g>
					<g>
						<g>
							
								<path style="fill:none;stroke:#FFFFFF;stroke-width:0.5;stroke-linecap:round;stroke-linejoin:round;stroke-miterlimit:10;" d="
								M405.009,176.301l-12.932-9.396c2.076-2.857,4.634-4.716,7.993-5.807L405.009,176.301z"/>
						</g>
					</g>
					<g>
						<g>
							
								<path style="fill:none;stroke:#FFFFFF;stroke-width:0.5;stroke-linecap:round;stroke-linejoin:round;stroke-miterlimit:10;" d="
								M405.009,176.301h-15.985c0-3.531,0.977-6.539,3.053-9.396L405.009,176.301z"/>
						</g>
					</g>
				</g>
				<g>
					<path style="fill:#263238;" d="M406.943,176.301c0-1.068-0.866-1.934-1.934-1.934c-1.068,0-1.934,0.866-1.934,1.934
						c0,1.068,0.866,1.934,1.934,1.934C406.077,178.235,406.943,177.369,406.943,176.301z"/>
					
						<line style="fill:none;stroke:#263238;stroke-linecap:round;stroke-linejoin:round;stroke-miterlimit:10;" x1="405.009" y1="176.301" x2="411.575" y2="166.732"/>
				</g>
			</g>
			<g>
				<g>
					
						<line style="fill:none;stroke:#263238;stroke-linecap:round;stroke-linejoin:round;stroke-miterlimit:10;" x1="390.627" y1="214.81" x2="420.344" y2="214.81"/>
					
						<line style="fill:none;stroke:#263238;stroke-linecap:round;stroke-linejoin:round;stroke-miterlimit:10;" x1="390.627" y1="218.22" x2="420.344" y2="218.22"/>
				</g>
				<path style="fill:#92E3A9;" d="M417.941,198.907c-2.076-2.857-4.634-4.716-7.993-5.807c-3.358-1.091-6.521-1.091-9.879,0
					c-3.359,1.091-5.917,2.95-7.993,5.807c-2.076,2.857-3.053,5.864-3.053,9.396h15.985h15.985
					C420.994,204.771,420.016,201.764,417.941,198.907z"/>
				<g>
					<g>
						<g>
							
								<path style="fill:none;stroke:#FFFFFF;stroke-width:0.5;stroke-linecap:round;stroke-linejoin:round;stroke-miterlimit:10;" d="
								M405.009,208.303l12.932-9.396c2.076,2.857,3.053,5.864,3.053,9.396H405.009z"/>
						</g>
					</g>
					<g>
						<g>
							
								<path style="fill:none;stroke:#FFFFFF;stroke-width:0.5;stroke-linecap:round;stroke-linejoin:round;stroke-miterlimit:10;" d="
								M405.009,208.303l4.94-15.203c3.358,1.091,5.917,2.95,7.992,5.807L405.009,208.303z"/>
						</g>
					</g>
					<g>
						<g>
							
								<path style="fill:none;stroke:#FFFFFF;stroke-width:0.5;stroke-linecap:round;stroke-linejoin:round;stroke-miterlimit:10;" d="
								M405.009,208.303l-4.94-15.203c3.358-1.091,6.521-1.091,9.879,0L405.009,208.303z"/>
						</g>
					</g>
					<g>
						<g>
							
								<path style="fill:none;stroke:#FFFFFF;stroke-width:0.5;stroke-linecap:round;stroke-linejoin:round;stroke-miterlimit:10;" d="
								M405.009,208.303l-12.932-9.396c2.076-2.857,4.634-4.716,7.993-5.807L405.009,208.303z"/>
						</g>
					</g>
					<g>
						<g>
							
								<path style="fill:none;stroke:#FFFFFF;stroke-width:0.5;stroke-linecap:round;stroke-linejoin:round;stroke-miterlimit:10;" d="
								M405.009,208.303h-15.985c0-3.531,0.977-6.539,3.053-9.396L405.009,208.303z"/>
						</g>
					</g>
				</g>
				<g>
					<path style="fill:#263238;" d="M406.943,208.303c0-1.068-0.866-1.934-1.934-1.934c-1.068,0-1.934,0.866-1.934,1.934
						c0,1.068,0.866,1.934,1.934,1.934C406.077,210.237,406.943,209.371,406.943,208.303z"/>
					
						<line style="fill:none;stroke:#263238;stroke-linecap:round;stroke-linejoin:round;stroke-miterlimit:10;" x1="405.009" y1="208.303" x2="398.584" y2="199.209"/>
				</g>
			</g>
			<g>
				<g>
					
						<line style="fill:none;stroke:#263238;stroke-linecap:round;stroke-linejoin:round;stroke-miterlimit:10;" x1="419.39" y1="246.812" x2="389.673" y2="246.812"/>
					
						<line style="fill:none;stroke:#263238;stroke-linecap:round;stroke-linejoin:round;stroke-miterlimit:10;" x1="419.39" y1="250.222" x2="389.673" y2="250.222"/>
				</g>
				<path style="fill:#92E3A9;" d="M392.077,230.909c2.076-2.857,4.634-4.716,7.992-5.807c3.358-1.091,6.521-1.091,9.879,0
					c3.358,1.091,5.917,2.95,7.992,5.807c2.076,2.857,3.053,5.864,3.053,9.396h-15.985h-15.985
					C389.024,236.774,390.001,233.766,392.077,230.909z"/>
				<g>
					<g>
						<g>
							
								<path style="fill:none;stroke:#FFFFFF;stroke-width:0.5;stroke-linecap:round;stroke-linejoin:round;stroke-miterlimit:10;" d="
								M405.009,240.305l-12.932-9.396c-2.076,2.857-3.053,5.864-3.053,9.396H405.009z"/>
						</g>
					</g>
					<g>
						<g>
							
								<path style="fill:none;stroke:#FFFFFF;stroke-width:0.5;stroke-linecap:round;stroke-linejoin:round;stroke-miterlimit:10;" d="
								M405.009,240.305l-4.94-15.203c-3.358,1.091-5.917,2.95-7.993,5.807L405.009,240.305z"/>
						</g>
					</g>
					<g>
						<g>
							
								<path style="fill:none;stroke:#FFFFFF;stroke-width:0.5;stroke-linecap:round;stroke-linejoin:round;stroke-miterlimit:10;" d="
								M405.009,240.305l4.94-15.203c-3.359-1.091-6.521-1.091-9.879,0L405.009,240.305z"/>
						</g>
					</g>
					<g>
						<g>
							
								<path style="fill:none;stroke:#FFFFFF;stroke-width:0.5;stroke-linecap:round;stroke-linejoin:round;stroke-miterlimit:10;" d="
								M405.009,240.305l12.932-9.396c-2.076-2.857-4.634-4.716-7.992-5.807L405.009,240.305z"/>
						</g>
					</g>
					<g>
						<g>
							
								<path style="fill:none;stroke:#FFFFFF;stroke-width:0.5;stroke-linecap:round;stroke-linejoin:round;stroke-miterlimit:10;" d="
								M405.009,240.305h15.985c0-3.531-0.977-6.539-3.053-9.396L405.009,240.305z"/>
						</g>
					</g>
				</g>
				<g>
					<path style="fill:#263238;" d="M403.074,240.305c0-1.068,0.866-1.934,1.934-1.934c1.068,0,1.934,0.866,1.934,1.934
						c0,1.068-0.866,1.934-1.934,1.934C403.94,242.239,403.074,241.373,403.074,240.305z"/>
					
						<line style="fill:none;stroke:#263238;stroke-linecap:round;stroke-linejoin:round;stroke-miterlimit:10;" x1="405.009" y1="240.305" x2="393.246" y2="235.584"/>
				</g>
			</g>
			<g>
				<g>
					
						<line style="fill:none;stroke:#263238;stroke-linecap:round;stroke-linejoin:round;stroke-miterlimit:10;" x1="390.627" y1="278.814" x2="420.344" y2="278.814"/>
					
						<line style="fill:none;stroke:#263238;stroke-linecap:round;stroke-linejoin:round;stroke-miterlimit:10;" x1="390.627" y1="282.224" x2="420.344" y2="282.224"/>
				</g>
				<path style="fill:#92E3A9;" d="M417.941,262.911c-2.076-2.857-4.634-4.716-7.993-5.807c-3.358-1.091-6.521-1.091-9.879,0
					c-3.359,1.091-5.917,2.95-7.993,5.807c-2.076,2.857-3.053,5.865-3.053,9.396h15.985h15.985
					C420.994,268.776,420.016,265.768,417.941,262.911z"/>
				<g>
					<g>
						<g>
							
								<path style="fill:none;stroke:#FFFFFF;stroke-width:0.5;stroke-linecap:round;stroke-linejoin:round;stroke-miterlimit:10;" d="
								M405.009,272.307l12.932-9.396c2.076,2.857,3.053,5.865,3.053,9.396H405.009z"/>
						</g>
					</g>
					<g>
						<g>
							
								<path style="fill:none;stroke:#FFFFFF;stroke-width:0.5;stroke-linecap:round;stroke-linejoin:round;stroke-miterlimit:10;" d="
								M405.009,272.307l4.94-15.203c3.358,1.091,5.917,2.95,7.992,5.807L405.009,272.307z"/>
						</g>
					</g>
					<g>
						<g>
							
								<path style="fill:none;stroke:#FFFFFF;stroke-width:0.5;stroke-linecap:round;stroke-linejoin:round;stroke-miterlimit:10;" d="
								M405.009,272.307l-4.94-15.203c3.358-1.091,6.521-1.091,9.879,0L405.009,272.307z"/>
						</g>
					</g>
					<g>
						<g>
							
								<path style="fill:none;stroke:#FFFFFF;stroke-width:0.5;stroke-linecap:round;stroke-linejoin:round;stroke-miterlimit:10;" d="
								M405.009,272.307l-12.932-9.396c2.076-2.857,4.634-4.716,7.993-5.807L405.009,272.307z"/>
						</g>
					</g>
					<g>
						<g>
							
								<path style="fill:none;stroke:#FFFFFF;stroke-width:0.5;stroke-linecap:round;stroke-linejoin:round;stroke-miterlimit:10;" d="
								M405.009,272.307h-15.985c0-3.531,0.977-6.539,3.053-9.396L405.009,272.307z"/>
						</g>
					</g>
				</g>
				<g>
					<path style="fill:#263238;" d="M406.943,272.307c0-1.068-0.866-1.934-1.934-1.934c-1.068,0-1.934,0.866-1.934,1.934
						c0,1.068,0.866,1.934,1.934,1.934C406.077,274.241,406.943,273.375,406.943,272.307z"/>
					
						<line style="fill:none;stroke:#263238;stroke-linecap:round;stroke-linejoin:round;stroke-miterlimit:10;" x1="405.009" y1="272.307" x2="390.465" y2="272.283"/>
				</g>
			</g>
			<g>
				<path style="fill:#FFFFFF;" d="M352.81,50.857c1.299,0.183,1.895,1.192,1.895,2.629v0.291h-1.116V53.41
					c0-0.948-0.382-1.528-1.238-1.528c-0.84,0-1.223,0.581-1.223,1.528c0,2.399,3.592,2.414,3.592,5.425
					c0,1.437-0.612,2.461-1.911,2.644v0.81h-0.978v-0.81c-1.329-0.184-1.926-1.192-1.926-2.644v-0.657h1.116v0.734
					c0,0.963,0.397,1.513,1.253,1.513c0.872,0,1.253-0.55,1.253-1.513c0-2.384-3.577-2.415-3.577-5.426
					c0-1.467,0.597-2.43,1.88-2.629v-0.856h0.978V50.857z"/>
				<path style="fill:#FFFFFF;" d="M360.638,53.394v0.275c0,1.1-0.443,1.88-1.299,2.201c0.901,0.336,1.299,1.146,1.299,2.216v0.825
					c0,1.635-0.764,2.705-2.415,2.705c-1.636,0-2.4-1.07-2.4-2.705v-0.734h1.116v0.81c0,0.963,0.397,1.544,1.253,1.544
					c0.871,0,1.253-0.566,1.253-1.65v-0.825c0-1.055-0.443-1.559-1.344-1.59h-0.642v-1.07h0.703
					c0.794-0.031,1.284-0.535,1.284-1.467V53.44c0-1.1-0.383-1.666-1.253-1.666c-0.856,0-1.253,0.596-1.253,1.559v0.55h-1.116
					v-0.489c0-1.636,0.764-2.69,2.4-2.69C359.874,50.705,360.638,51.759,360.638,53.394z"/>
				<path style="fill:#FFFFFF;" d="M366.616,53.41c0,3.225-3.622,4.386-3.638,6.847v0.168h3.516v1.085h-4.693v-0.917
					c0-3.454,3.622-4.127,3.622-7.138c0-1.1-0.366-1.681-1.253-1.681c-0.871,0-1.253,0.627-1.253,1.574v0.948h-1.116v-0.871
					c0-1.635,0.75-2.72,2.4-2.72C365.868,50.705,366.616,51.774,366.616,53.41z"/>
				<path style="fill:#FFFFFF;" d="M368.24,61.51h-0.443v-1.483h1.146v1.375l-0.596,1.452h-0.489L368.24,61.51z"/>
				<path style="fill:#FFFFFF;" d="M371.358,55.167c0.337-0.581,0.871-0.886,1.59-0.886c1.376,0,1.987,1.009,1.987,2.537v2.094
					c0,1.635-0.779,2.705-2.415,2.705c-1.636,0-2.4-1.07-2.4-2.705v-0.718h1.116v0.794c0,0.963,0.397,1.544,1.253,1.544
					c0.856,0,1.253-0.581,1.253-1.544v-2.079c0-0.962-0.397-1.543-1.253-1.543c-0.658,0-1.1,0.367-1.207,1.146v0.244h-1.116
					l0.291-5.945h4.218v1.069h-3.148L371.358,55.167z"/>
				<path style="fill:#FFFFFF;" d="M380.882,53.379v0.199h-1.115v-0.275c0-0.963-0.398-1.529-1.269-1.529
					c-0.901,0-1.299,0.581-1.299,1.728v2.399c0.29-0.734,0.872-1.146,1.727-1.146c1.376,0,1.987,0.993,1.987,2.537v1.62
					c0,1.635-0.81,2.705-2.445,2.705c-1.651,0-2.461-1.07-2.461-2.705v-5.456c0-1.696,0.764-2.751,2.461-2.751
					C380.118,50.705,380.882,51.744,380.882,53.379z M377.199,57.383v1.605c0,0.963,0.398,1.544,1.268,1.544
					c0.856,0,1.268-0.581,1.268-1.544v-1.605c0-0.963-0.412-1.543-1.268-1.543C377.597,55.84,377.199,56.42,377.199,57.383z"/>
				<path style="fill:#FFFFFF;" d="M386.83,53.394v5.456c0,1.696-0.764,2.766-2.476,2.766c-1.636,0-2.415-1.055-2.415-2.69v-0.199
					h1.116v0.275c0,0.963,0.412,1.529,1.268,1.529c0.917,0,1.314-0.581,1.314-1.712v-2.4c-0.29,0.734-0.871,1.131-1.727,1.131
					c-1.375,0-1.987-0.978-1.987-2.522v-1.635c0-1.636,0.794-2.69,2.445-2.69C386.02,50.705,386.83,51.759,386.83,53.394z
					 M383.101,53.333v1.605c0,0.963,0.413,1.544,1.268,1.544c0.871,0,1.268-0.581,1.268-1.544v-1.605
					c0-0.978-0.397-1.543-1.268-1.543C383.514,51.79,383.101,52.355,383.101,53.333z"/>
				<path style="fill:#FFFFFF;" d="M388.499,61.51h-0.443v-1.483h1.146v1.375l-0.596,1.452h-0.489L388.499,61.51z"/>
				<path style="fill:#FFFFFF;" d="M395.331,53.348v0.336c0,1.085-0.383,1.88-1.223,2.201c0.886,0.352,1.223,1.192,1.223,2.262
					v0.795c0,1.651-0.856,2.675-2.522,2.675c-1.666,0-2.522-1.024-2.522-2.675v-0.795c0-1.085,0.336-1.895,1.238-2.262
					c-0.871-0.336-1.238-1.116-1.238-2.201v-0.336c0-1.65,0.872-2.644,2.522-2.644C394.46,50.705,395.331,51.698,395.331,53.348z
					 M391.464,53.379v0.52c0,1.039,0.504,1.498,1.345,1.498c0.841,0,1.345-0.459,1.345-1.498v-0.52c0-1.1-0.504-1.605-1.345-1.605
					C391.969,51.774,391.464,52.279,391.464,53.379z M391.464,58.01v0.902c0,1.1,0.489,1.62,1.345,1.62
					c0.856,0,1.33-0.52,1.345-1.62V58.01c0-1.039-0.459-1.543-1.345-1.543C391.923,56.466,391.464,56.971,391.464,58.01z"/>
				<path style="fill:#FFFFFF;" d="M401.217,53.394v5.456c0,1.696-0.764,2.766-2.476,2.766c-1.636,0-2.415-1.055-2.415-2.69v-0.199
					h1.116v0.275c0,0.963,0.412,1.529,1.268,1.529c0.917,0,1.314-0.581,1.314-1.712v-2.4c-0.29,0.734-0.871,1.131-1.727,1.131
					c-1.375,0-1.987-0.978-1.987-2.522v-1.635c0-1.636,0.794-2.69,2.445-2.69C400.408,50.705,401.217,51.759,401.217,53.394z
					 M397.488,53.333v1.605c0,0.963,0.413,1.544,1.268,1.544c0.872,0,1.268-0.581,1.268-1.544v-1.605
					c0-0.978-0.397-1.543-1.268-1.543C397.901,51.79,397.488,52.355,397.488,53.333z"/>
				<path style="fill:#FFFFFF;" d="M407.119,53.394v0.275c0,1.1-0.443,1.88-1.299,2.201c0.901,0.336,1.299,1.146,1.299,2.216v0.825
					c0,1.635-0.764,2.705-2.415,2.705c-1.636,0-2.4-1.07-2.4-2.705v-0.734h1.116v0.81c0,0.963,0.397,1.544,1.253,1.544
					c0.872,0,1.253-0.566,1.253-1.65v-0.825c0-1.055-0.443-1.559-1.344-1.59h-0.642v-1.07h0.703
					c0.794-0.031,1.284-0.535,1.284-1.467V53.44c0-1.1-0.382-1.666-1.253-1.666c-0.856,0-1.253,0.596-1.253,1.559v0.55h-1.116
					v-0.489c0-1.636,0.764-2.69,2.4-2.69C406.355,50.705,407.119,51.759,407.119,53.394z"/>
				<path style="fill:#FFFFFF;" d="M409.43,60.027v1.483h-1.146v-1.483H409.43z"/>
				<path style="fill:#FFFFFF;" d="M410.562,53.394c0-1.636,0.81-2.69,2.445-2.69c1.651,0,2.461,1.054,2.461,2.69v5.517
					c0,1.635-0.81,2.705-2.461,2.705c-1.636,0-2.445-1.07-2.445-2.705V53.394z M411.739,58.988c0,0.963,0.413,1.544,1.268,1.544
					c0.872,0,1.268-0.581,1.268-1.544v-5.655c0-0.978-0.397-1.559-1.268-1.559c-0.855,0-1.268,0.581-1.268,1.559V58.988z"/>
				<path style="fill:#FFFFFF;" d="M421.354,53.394v0.275c0,1.1-0.443,1.88-1.299,2.201c0.901,0.336,1.299,1.146,1.299,2.216v0.825
					c0,1.635-0.764,2.705-2.415,2.705c-1.636,0-2.4-1.07-2.4-2.705v-0.734h1.116v0.81c0,0.963,0.397,1.544,1.253,1.544
					c0.871,0,1.253-0.566,1.253-1.65v-0.825c0-1.055-0.443-1.559-1.344-1.59h-0.642v-1.07h0.703
					c0.794-0.031,1.284-0.535,1.284-1.467V53.44c0-1.1-0.383-1.666-1.253-1.666c-0.856,0-1.253,0.596-1.253,1.559v0.55h-1.116
					v-0.489c0-1.636,0.764-2.69,2.4-2.69C420.59,50.705,421.354,51.759,421.354,53.394z"/>
			</g>
		</g>
	</g>
</g>
<g id="Character_2">
	<g>
		<g>
			<path style="fill:#FFFFFF;stroke:#263238;stroke-miterlimit:10;" d="M419.768,230.519c0,0-2.39,2.825-3.042,4.563
				c-0.652,1.738-1.086,4.128-1.956,5.432c-0.869,1.304-3.911,0.869-3.911,2.825s1.304,4.128,1.304,4.128s0.652,6.301,1.521,7.822
				c0.869,1.521,9.994,0,9.994,0s3.476-5.214,3.476-10.646C427.156,239.21,423.245,230.954,419.768,230.519z"/>
			<path style="fill:#263238;" d="M418.027,240.466c-0.087,0.775-0.4,1.376-0.698,1.343c-0.298-0.033-0.469-0.689-0.382-1.464
				c0.087-0.775,0.4-1.376,0.698-1.343C417.943,239.035,418.114,239.691,418.027,240.466z"/>
			<path style="fill:none;stroke:#263238;stroke-miterlimit:10;" d="M417.596,236.603c0,0,2.39-0.652,2.39,2.39"/>
		</g>
		<g>
			<path style="fill:#FFFFFF;stroke:#263238;stroke-miterlimit:10;" d="M440.192,380.001l-0.869,18.033
				c0,0,5.866,10.646,6.084,20.641c0.217,9.994,4.78,33.46,4.78,33.46l0.869,13.471l-2.173,0.217l-1.738-3.476
				c0,0-0.869,3.694-1.521,3.694c-0.652,0-5.866-0.435-6.083-1.956c-0.217-1.521-0.652-2.39,0.652-2.607
				c1.304-0.217,4.997-8.908,4.997-8.908s-9.125-21.075-10.863-25.203c-1.738-4.128-3.476-10.864-3.476-10.864
				s-1.304-7.17-2.824-14.557c-1.521-7.387-2.824-20.858-2.824-20.858L440.192,380.001z"/>
			<path style="fill:#263238;stroke:#263238;stroke-miterlimit:10;" d="M445.189,452.569c-1.086,3.259-2.824,8.256-2.824,8.256
				l-2.173,0.652c-1.304,0.217-0.869,1.086-0.652,2.607c0.217,1.521,5.432,1.956,6.083,1.956c0.652,0,1.521-3.694,1.521-3.694
				l1.738,3.476l2.173-0.217l-0.869-13.471C450.186,452.134,446.275,449.31,445.189,452.569z"/>
		</g>
		<g>
			<path style="fill:#FFFFFF;stroke:#263238;stroke-miterlimit:10;" d="M411.512,378.48c0,0,0.217,5.866,1.738,8.691
				c1.521,2.824,3.042,12.602,3.042,12.602s-0.217,15.426,2.173,23.031c2.39,7.604,5.649,32.373,5.649,32.373
				s-6.518,7.822-7.387,8.691c-0.869,0.869-5.866,3.042-4.78,3.911c1.086,0.869,7.17,1.521,9.125,1.304
				c1.955-0.217,8.256-4.78,8.908-5.214c0.652-0.435,0.869,5.649,0.869,5.649h2.607l0.652-9.125c0,0,0.435-3.259-0.217-4.78
				s-2.173-3.694-2.173-3.694l1.086-27.159c0,0,1.738-9.125,0.435-15.209c-1.304-6.083-3.042-15.861-3.042-15.861l0.869-13.036
				l0.652-8.474c0,0-2.607-1.955-9.125-1.955s-12.602,1.086-12.602,1.086L411.512,378.48z"/>
			<path style="fill:#263238;stroke:#263238;stroke-miterlimit:10;" d="M434.108,460.391c0,0,0.435-3.259-0.217-4.78
				c-0.406-0.946-1.147-2.144-1.65-2.915c-0.96,0.61-2.939,1.969-4.216,3.566c-1.738,2.173-5.432,6.735-7.387,7.822
				c-1.427,0.793-4.004,0.775-5.296,0.708c-1.719,1.011-4.191,2.348-3.394,2.985c1.086,0.869,7.17,1.521,9.125,1.304
				c1.956-0.217,8.256-4.78,8.908-5.215c0.652-0.435,0.869,5.649,0.869,5.649h2.607L434.108,460.391z"/>
		</g>
		<path style="fill:#92E3A9;stroke:#263238;stroke-miterlimit:10;" d="M406.515,331.767c0,0-1.086,16.947-0.869,25.638
			c0.217,8.691,1.304,22.813,1.304,22.813s3.911,1.304,6.301,1.956c2.39,0.652,3.476,0.652,3.476,0.652l2.824-4.997l1.955,5.432
			c0,0,4.563,0.434,10.429,0.434c5.866,0,11.298-2.607,11.733-3.259c0.435-0.652,1.521-1.738,1.521-1.738l-1.955-20.641
			c0,0,3.911-10.212,4.128-15.426c0.217-5.215-2.39-11.515-2.39-11.515s-10.212,3.259-18.468,1.738
			c-8.256-1.521-19.771-4.128-19.771-4.128L406.515,331.767z"/>
		<path style="fill:#92E3A9;stroke:#263238;stroke-miterlimit:10;" d="M443.016,295.266c0,0,4.128,18.033,3.911,20.641
			c-0.217,2.607-4.997,10.646-4.997,10.646s-5.214-9.56-6.084-14.992c-0.869-5.432,0-9.56,1.086-11.515
			c1.086-1.955,4.128-6.953,4.128-6.953L443.016,295.266z"/>
		<path style="fill:#92E3A9;stroke:#263238;stroke-miterlimit:10;" d="M415.64,275.929c0,0-8.039,13.905-8.039,17.599
			c0,3.694,0.217,18.251-1.086,22.596c-1.304,4.345-3.042,16.73-3.042,16.73s3.042,4.128,14.123,5.649
			c11.081,1.521,24.551-3.259,25.855-3.694c1.304-0.435,3.694-1.738,3.694-1.738l1.304-0.435c0,0-4.128-7.387-5.866-10.863
			c-1.738-3.476-5.215-9.125-4.345-13.905c0.869-4.78,5.866-12.384,8.039-19.337s1.304-15.861-1.955-20.206
			c-3.259-4.345-16.078-4.345-21.727-1.086C416.944,270.497,415.64,275.929,415.64,275.929z"/>
		<path style="fill:#263238;stroke:#263238;stroke-miterlimit:10;" d="M423.076,220.349c-3.458,1.497-6.176,4.212-5.263,7.998
			c1.521,6.301,6.084,10.429,6.084,15.861c0,5.432-2.607,16.078-6.301,20.206c-3.694,4.128-6.735,17.382-3.476,17.816
			c3.259,0.434,2.173-4.997,6.735-9.125c4.563-4.128,10.646-0.869,12.167,5.214c1.521,6.084-1.086,11.515,2.173,15.426
			c3.259,3.911,10.863,2.39,13.688-2.39c2.824-4.78,0.434-8.908,2.173-10.863c1.738-1.955,5.649-5.214,4.345-10.212
			c-1.304-4.997-9.56-5.866-8.691-12.602c0.869-6.735,5.866-15.643,3.694-21.075c-2.173-5.432-6.301-11.732-9.778-14.123
			c-2.806-1.929-6.556-2.998-9.9-3.405C428.535,218.809,425.607,219.253,423.076,220.349z"/>
		<g>
			<g>
				<path style="fill:#FFFFFF;stroke:#263238;stroke-miterlimit:10;" d="M408.688,339.589c0,0-4.128,8.473-4.345,9.777
					c-0.217,1.304-0.435,10.863-0.435,10.863s1.086,3.259,1.738,3.694c0.652,0.435,1.521-0.217,1.521-1.738c0-1.521,0-2.173,0-2.173
					s1.304-2.824,2.39-4.997c1.086-2.173,0.652-7.604,0.652-7.604l3.476-5.866L408.688,339.589z"/>
				<polygon style="fill:#FFFFFF;stroke:#263238;stroke-miterlimit:10;" points="406.949,342.413 412.381,346.107 414.554,341.544 
					408.688,339.589 				"/>
			</g>
			<path style="fill:#92E3A9;stroke:#263238;stroke-miterlimit:10;" d="M432.37,281.143c0,0-3.259-9.777-9.343-9.343
				c-6.084,0.435-7.604,14.123-7.604,19.772c0,5.649,0.869,26.941,0.869,26.941l-8.691,21.075l6.301,3.911
				c0,0,14.557-21.727,14.992-22.813c0.434-1.086,1.738-29.549,1.738-29.549"/>
		</g>
	</g>
</g>
<g id="Character_1">
	<g>
		<path style="fill:none;stroke:#263238;stroke-miterlimit:10;" d="M352.833,239.922c0,0,2.817-0.217,1.95,2.167
			c-0.867,2.384-2.384,3.9-3.467,4.117c-1.083,0.217-1.733,0.217-1.733,0.217L352.833,239.922z"/>
		<path style="fill:#FFFFFF;stroke:#263238;stroke-miterlimit:10;" d="M329.432,238.838c0,0-2.6,0.433-2.167,2.383
			c0.433,1.95,1.95,5.2,2.817,5.417c0.867,0.217,2.167-1.083,2.167-1.083L329.432,238.838z"/>
		<path style="fill:#FFFFFF;stroke:#263238;stroke-miterlimit:10;" d="M292.761,298.001c0,0,3.042-7.604,4.563-9.125
			c1.521-1.521,3.911-6.953,3.911-6.953l2.173,6.953l-9.994,11.081C293.413,299.957,292.543,300.174,292.761,298.001z"/>
		<path style="fill:#263238;stroke:#263238;stroke-miterlimit:10;" d="M295.304,267.629l5.403,21.98
			c0.316,1.287,1.653,2.04,2.917,1.643l13.149-4.122c1.157-0.363,1.833-1.563,1.543-2.741l-5.279-21.437
			c-0.308-1.251-1.584-2.004-2.828-1.668l-13.274,3.578C295.731,265.188,295.005,266.417,295.304,267.629z"/>
		<polygon style="fill:#FFFFFF;stroke:#263238;stroke-miterlimit:10;" points="332.899,247.289 332.682,258.34 348.066,259.856 
			347.633,249.022 		"/>
		<path style="fill:#263238;stroke:#263238;stroke-miterlimit:10;" d="M334.632,218.471c0,0-6.067,4.334-7.367,8.884
			c-1.3,4.55,0.867,10.617,1.733,12.351c0.867,1.734,3.684,9.317,4.767,10.617c1.083,1.3,6.067,3.467,7.8,3.033
			c1.733-0.433,7.15-1.083,7.8-3.25c0.65-2.167,4.117-10.401,4.55-11.701c0.433-1.3,1.734-10.617,0.433-12.567
			c-1.3-1.95-5.417-6.067-5.417-6.067s-1.95-3.034-6.067-3.9C338.749,215.004,334.632,218.471,334.632,218.471z"/>
		<path style="fill:#FFFFFF;stroke:#263238;stroke-miterlimit:10;" d="M326.399,260.506c0,0,2.6-4.55,8.667-4.55
			c6.067,0,11.917,0.217,13.434,0.65c1.517,0.433,4.334,5.85,4.334,5.85s-15.601-1.083-19.935-1.083c-4.334,0-8.451,0.65-8.451,0.65
			L326.399,260.506z"/>
		<g>
			<path style="fill:#FFFFFF;stroke:#263238;stroke-miterlimit:10;" d="M358.9,248.806c0,0-3.033-3.467-3.684-4.767
				c-0.65-1.3-0.217-3.033,0.433-3.467c0.65-0.433,1.733-0.65,1.733-0.65s0.65-6.067,0.433-6.934
				c-0.217-0.867,0.65-1.083,1.733-0.867c1.083,0.217,1.517,5.2,1.517,5.2s1.517,0.433,2.817,1.733c1.3,1.3,1.517,4.117,1.517,4.984
				s0,3.467,0,3.467l0.433,3.033l-6.067,1.517L358.9,248.806z"/>
			<path style="fill:#FFFFFF;stroke:#263238;stroke-miterlimit:10;" d="M360.634,267.223c0,0-1.3-15.384-1.3-16.251
				c0-0.867,1.733-2.383,3.467-2.383s3.467,1.733,3.467,1.733s6.284,18.418,7.584,20.151c1.3,1.733,3.9,8.884,3.9,11.051
				s-7.8-0.217-9.967-2.167c-2.167-1.95-6.5-9.967-6.5-9.967L360.634,267.223z"/>
		</g>
		<path style="fill:#263238;stroke:#263238;stroke-miterlimit:10;" d="M316.443,326.681l-1.955,21.51c0,0-1.955,50.189-1.955,53.666
			c0,3.476,0.652,28.462,1.521,34.98c0.869,6.518,0.652,18.251,0.652,18.251s-2.607,1.304-2.607,2.607c0,1.304,0,2.39,0,2.39
			s-3.259,1.956-4.345,3.042c-1.086,1.086-2.39,3.476-0.869,4.78c1.521,1.304,12.384,5.649,13.905,5.649
			c1.521,0,5.432-0.652,6.301-2.173c0.869-1.521,0.217-8.474,0.217-8.474s1.956-3.042,1.956-4.128c0-1.086-0.217-2.607-0.217-4.345
			c0-1.738,0.869-21.944,0.869-21.944s3.042-42.368,3.476-43.019c0.434-0.652,2.39-30.201,2.39-30.201l3.694,0.434l4.997,36.284
			c0,0,6.735,33.894,6.953,34.98c0.217,1.086,3.476,19.12,3.476,19.12s0,3.911,0,5.649c0,1.738,2.173,5.215,2.173,5.215
			s-0.435,5.432,0.652,7.387c1.086,1.955,5.432,2.173,8.691,1.086c3.259-1.086,2.607-5.432,2.607-7.604s-0.217-4.345-0.217-4.345
			s-0.217-3.259,0-5.432c0.217-2.173-1.738-8.474-1.738-9.56c0-1.086,0.652-27.376,0.217-33.025
			c-0.435-5.649-4.128-23.465-4.128-23.465s-2.173-33.46-2.173-34.329c0-0.869,0.084-23.99,0.084-23.99s-8.775,2.263-23.549,0.742
			c-14.774-1.521-21.292-2.825-21.292-2.825L316.443,326.681z"/>
		<g>
			<path style="fill:#FFFFFF;stroke:#263238;stroke-miterlimit:10;" d="M324.448,262.023c0,0-15.601,6.284-14.951,7.15
				c0.65,0.867-7.367,16.034-8.017,16.901c-0.65,0.867-8.451,10.834-9.317,12.784s-2.6,4.55,0.217,7.584
				c2.817,3.034,4.117,4.117,8.017,3.467c3.9-0.65,13.867-11.917,13.867-11.917s0.433,14.084,0.65,17.768
				c0.217,3.684,0.217,4.767,0.217,6.717c0,1.95-1.083,3.034,1.517,5.417c2.6,2.384,13.651,5.417,21.451,4.984
				c7.8-0.433,14.084-0.433,17.118-1.3s5.417-1.3,5.85-3.9c0.433-2.6,0.65-9.75,0.65-11.917c0-2.167,1.3-24.701,1.3-24.701
				s6.934,0.65,10.184,0c3.25-0.65,5.417-6.717,4.55-9.534c-0.867-2.817-4.333-4.984-6.067-6.717
				c-1.733-1.733-2.817-4.117-5.2-6.717c-2.383-2.6-3.467-2.6-5.417-3.033c-1.95-0.433-8.234-2.6-8.234-2.6
				S337.233,260.506,324.448,262.023z"/>
			<path style="fill:none;stroke:#263238;stroke-miterlimit:10;" d="M338.779,325.873c3.317-2.7,7.534-6.294,9.618-8.725"/>
			<path style="fill:none;stroke:#263238;stroke-miterlimit:10;" d="M334.098,329.581c0,0,0.669-0.511,1.729-1.346"/>
			<line style="fill:none;stroke:#263238;stroke-miterlimit:10;" x1="344.667" y1="326.473" x2="349.641" y2="322.121"/>
			<line style="fill:none;stroke:#263238;stroke-miterlimit:10;" x1="314.265" y1="297.992" x2="310.581" y2="276.324"/>
			<line style="fill:none;stroke:#263238;stroke-miterlimit:10;" x1="307.114" y1="279.574" x2="312.531" y2="287.158"/>
			<path style="fill:none;stroke:#263238;stroke-miterlimit:10;" d="M326.615,264.623c0,0,8.017,8.451,11.917,19.718"/>
			<path style="fill:none;stroke:#263238;stroke-miterlimit:10;" d="M334.849,271.557c0,0,4.767,8.451,6.067,11.484"/>
			<path style="fill:none;stroke:#263238;stroke-miterlimit:10;" d="M364.751,267.657c0,0,1.517,6.934,1.733,7.801"/>
			<path style="fill:none;stroke:#263238;stroke-miterlimit:10;" d="M366.918,281.524c-0.433,2.167-3.9,9.534-3.9,9.534
				s5.417-6.284,5.85-6.934"/>
		</g>
	</g>
</g>
</svg>
