<?xml version="1.0" encoding="UTF-8" standalone="no"?>
<!-- Generator: Adobe Illustrator 16.0.0, SVG Export Plug-In . SVG Version: 6.00 Build 0)  -->

<svg
   xmlns:dc="http://purl.org/dc/elements/1.1/"
   xmlns:cc="http://creativecommons.org/ns#"
   xmlns:rdf="http://www.w3.org/1999/02/22-rdf-syntax-ns#"
   xmlns:svg="http://www.w3.org/2000/svg"
   xmlns="http://www.w3.org/2000/svg"
   xmlns:sodipodi="http://sodipodi.sourceforge.net/DTD/sodipodi-0.dtd"
   xmlns:inkscape="http://www.inkscape.org/namespaces/inkscape"
   version="1.1"
   id="Calque_1"
   x="0px"
   y="0px"
   width="1293.999px"
   height="718.5px"
   viewBox="0 0 431.333 239.5"
   enable-background="new 0 0 431.333 239.5"
   xml:space="preserve"
   inkscape:version="0.48.4 r9939"
   sodipodi:docname="Finale.svg"><title
   id="title3030">Algerie Telecom</title><metadata
   id="metadata53"><rdf:RDF><cc:Work
       rdf:about=""><dc:format>image/svg+xml</dc:format><dc:type
         rdf:resource="http://purl.org/dc/dcmitype/StillImage" /><dc:title>Algerie Telecom</dc:title></cc:Work></rdf:RDF></metadata><defs
   id="defs51" /><sodipodi:namedview
   pagecolor="#ffffff"
   bordercolor="#666666"
   borderopacity="1"
   objecttolerance="10"
   gridtolerance="10"
   guidetolerance="10"
   inkscape:pageopacity="0"
   inkscape:pageshadow="2"
   inkscape:window-width="1024"
   inkscape:window-height="514"
   id="namedview49"
   showgrid="false"
   inkscape:zoom="0.81375641"
   inkscape:cx="215.6665"
   inkscape:cy="119.75"
   inkscape:window-x="-8"
   inkscape:window-y="-8"
   inkscape:window-maximized="1"
   inkscape:current-layer="Calque_1" />
<path
   fill="#1F235A"
   d="M214.713,214.6c-0.17,0.19-0.36,0.381-0.55,0.57c-36.12,36.12-107.83,22.99-160.16-29.34  c-5.56-5.561-10.68-11.34-15.34-17.271V154.5h-10.03c-19.63-30.45-27.8-63.41-23.03-90.79c1.32,1.46,4.12,2.81,5.31,3.71  c4.7,3.51,12.33,12.57,16.3,16.89c1.2,1.32,3.5,4.04,4.68,5.38c0.42,0.47,0.74,1.44,0.69,2.06c-0.04,0.55-0.49,1.35-1,1.56  c-0.94,0.4-3.09,0.17-4.06-0.12c-0.48-0.14-1.28-0.78-1.75-0.94c-0.5-0.17-1.68-0.29-2.13,0c-0.21,0.13-0.31,0.69-0.31,0.94  c0.01,0.34,0.36,0.97,0.56,1.25c1.59,2.16,9.06,6.66,8,7.12c-0.94,0.41-7.74-4.43-10.44-5.68c-0.68-0.32-2.57-0.32-3,0.31  c-0.32,0.48,0.43,1.75,0.82,2.19c36.14,41.44,82.73,86.29,141.68,113.5c7.16,3.3,30.88,6.37,30.88,6.37  S203.554,216.93,214.713,214.6z"
   id="path3" />
<path
   fill="#FFFFFF"
   d="M234.314,168.15c0.22-2.96,0.279-5.971,0.21-9.03c0,0,0,0,0-0.01c-0.11-0.11-0.23-0.21-0.36-0.29  c-2.71-1.431-6.54-0.71-10.08-0.96c0-1.561-0.25-3.511-0.25-4.94c3.67-0.22,7.29-0.45,10.39,0.15  c-0.92-11.66-3.739-23.84-8.399-36.041c-0.13,0.52-0.29,0.95-0.49,1.22c-0.141,0.21-0.63,0.43-0.88,0.5  c-1.22,0.37-3.86,0.14-5.12,0.37c-2.34,0.44-6.91,1.87-9.12,2.76c-5.91,2.351-17.22,8.25-22.71,11.45  c-0.33,0.189-0.67,0.4-1.02,0.61s-0.7,0.43-1.06,0.659c-0.37,0.221-0.74,0.46-1.11,0.7c-0.65,0.42-1.33,0.87-2.02,1.33  c-0.31,0.21-0.63,0.43-0.95,0.65c-0.6,0.41-1.22,0.84-1.85,1.27c-1.37,0.96-2.8,1.97-4.26,3.01c-0.67,0.48-1.34,0.96-2.02,1.45  c-0.83,0.601-1.67,1.2-2.51,1.811c-0.62,0.439-1.24,0.89-1.86,1.33c-4.83,3.479-9.76,6.979-14.21,9.819  c-2.48,1.58-4.81,2.96-6.91,4.011c-0.36,0.18-0.71,0.359-1.06,0.52c-1.33,0.62-4.22,1.37-5.66,1.67c-1.65,0.34-4.99,0.84-6.67,0.83  c-2.06-0.02-6.17-0.65-8.17-1.17c-5.44-1.4-16.04-5.34-21-8c-19.12-10.23-70.24-50.02-71.48-50.99  c0.65,0.36,21.69,12.04,26.11,13.66c1.38,0.51,5.2,0.38,5.87,0c0.91-0.51,0.59-2.58-0.16-4.17c-1.02-2.15-4.75-6.4-5.5-8.66  c-0.6-1.79-1.8-4.15-0.75-6.59c0.08-0.19,0.18-0.37,0.3-0.57c0.01-0.02,0.01-0.03,0.03-0.04c0.05-0.09,0.11-0.18,0.18-0.27  c0.13-0.19,0.27-0.37,0.42-0.56c0.62-0.74,1.45-1.5,2.38-2.23c0.11-0.09,0.23-0.18,0.35-0.27c1.62-1.23,3.49-2.36,5.08-3.16  c0.25-0.13,0.5-0.25,0.73-0.35c0.24-0.11,0.46-0.21,0.68-0.3c0.21-0.09,0.42-0.17,0.61-0.24c30.82-11.09,63.82-8.09,95.7-27.42  c3.26-1.99,7.4-9.17,10.33-14.91c-0.79-0.71-1.58-1.4-2.38-2.08c-2.87,2.81-6.96,6.35-11.08,8.32c-5.37,2.56-36.56,2.12-44.5,2.75  c-7.25,0.57-21.77-1.71-29-2.5c-10.21-1.12-30.54-4.07-40.75-5.13c-7.86-0.81-23.64-1.56-31.5-2.37c-1.22-0.13-3.15-0.78-5.09-1.68  c-2.77,5.83-4.75,12.11-5.97,18.72c-0.07,0.3-0.12,0.61-0.17,0.92c1.32,1.46,4.12,2.81,5.31,3.71c4.7,3.51,12.33,12.57,16.3,16.89  c1.2,1.32,3.5,4.04,4.68,5.38c0.42,0.47,0.74,1.44,0.69,2.06c-0.04,0.55-0.49,1.35-1,1.56c-0.94,0.4-3.09,0.17-4.06-0.12  c-0.48-0.14-1.28-0.78-1.75-0.94c-0.5-0.17-1.68-0.29-2.13,0c-0.21,0.13-0.31,0.69-0.31,0.94c0.01,0.34,0.36,0.97,0.56,1.25  c1.59,2.16,9.06,6.66,8,7.12c-0.94,0.41-7.74-4.43-10.44-5.68c-0.68-0.32-2.57-0.32-3,0.31c-0.32,0.48,0.43,1.75,0.82,2.19  c36.14,41.44,82.73,86.29,141.68,113.5c7.16,3.3,30.88,6.37,30.88,6.37s11.72-1.32,22.88-3.65c4.229-4.319,7.761-9.149,10.62-14.369  c3.12-5.711,5.43-11.921,6.96-18.48h-3.27v-5.19h4.3c0.02-0.1,0.029-0.189,0.05-0.29c0.14-0.81,0.26-1.63,0.36-2.449  c-3.851,0-7.69-0.021-11.551-0.051h-0.06c-1.11-0.01-3.37,0.011-3.37,0.011s-0.16,1.6-0.5,2.55c-0.21,0.58-0.439,1.1-0.71,1.57  c-1.58,2.819-4.27,3.83-8.32,3.399l-0.06-0.24v-4.27c0,0,0.12-0.06,0.32-0.17c0,0,0.01-0.01,0.02-0.01  c0.41-0.48,1.04-0.9,1.96-1.261c0.35-0.279,0.77-0.689,1.08-1.29c0.04-0.09,0.08-0.18,0.12-0.279c0.3-0.721,0.49-1.55,0.52-2.21  c0.16-3.66,0.12-7.32,0.11-10.99h-0.01v-1.21c-0.01-0.61-0.01-1.23-0.01-1.84c0-0.53,0-1,0.01-1.431v-3.6h5.3  c0.189,0.02,0.391,0.03,0.6,0.05v15.601H234.314z M190.454,148.69h0.04l1.84-0.07l-0.44-0.9l-0.18-0.72v-1.03l0.43-1.06l1.03-0.69  h3.66v2.25h-2.41l-0.68,0.69v0.37l0.4,1l2.69,0.25v2.029h-5.19l-0.78-0.59l-0.27-0.479l-0.14-0.24l-0.17-0.51l-0.01-0.021  L190.454,148.69z M197.644,173.44h-12.06v0.38c-0.32,0.1-0.63,0.229-0.9,0.43c-0.45,0.45-0.96,1.06-1.3,1.71  c-0.05,0.11-0.1,0.23-0.15,0.35c0,0.021-0.01,0.04-0.02,0.061c-1.5,4-4.59,5.35-8.77,4.63v-4.58c1.91-0.56,3.04-1.6,3.66-2.979  c0.55-1.21,0.72-2.681,0.68-4.311c-0.01-0.31-0.01-0.62-0.01-0.939c0-0.181-0.01-0.37-0.01-0.561c0-0.189-0.01-0.39-0.01-0.6  c-0.01-0.57-0.01-1.19-0.02-1.84c-0.05-5.45-0.02-12.75-0.02-12.75h6.87v15.75h5.94v-15.75h6.12V173.44z M208.083,173.5h-6.08  v-30.94h6.08V173.5z M214.063,148.35v-4.83h5.27v4.83H214.063z"
   id="path5" />
<path
   fill="#1F235A"
   d="M173.664,44.68c-2.87,2.81-6.96,6.35-11.08,8.32c-5.37,2.56-36.56,2.12-44.5,2.75  c-7.25,0.57-21.77-1.71-29-2.5c-10.21-1.12-30.54-4.07-40.75-5.13c-7.86-0.81-23.64-1.56-31.5-2.37c-1.22-0.13-3.15-0.78-5.09-1.68  c0.8-1.7,1.68-3.37,2.62-4.99c2.82-4.87,6.25-9.36,10.3-13.41c32.49-32.49,93.77-25.13,143.84,14.75  C170.244,41.8,171.963,43.23,173.664,44.68z"
   id="path7" />
<path
   fill="#088141"
   d="M225.824,117.03c-0.13,0.52-0.29,0.95-0.49,1.22c-0.141,0.21-0.63,0.43-0.88,0.5  c-1.22,0.37-3.86,0.14-5.12,0.37c-2.34,0.44-6.91,1.87-9.12,2.76c-5.91,2.351-17.22,8.25-22.71,11.45  c-0.33,0.189-0.67,0.4-1.02,0.61s-0.7,0.43-1.06,0.659c-0.37,0.221-0.74,0.46-1.11,0.7c-0.65,0.42-1.33,0.87-2.02,1.33  c-0.31,0.21-0.63,0.43-0.95,0.65c-0.6,0.41-1.22,0.84-1.85,1.27c-1.37,0.96-2.8,1.97-4.26,3.01c-0.67,0.48-1.34,0.96-2.02,1.45  c-0.83,0.601-1.67,1.2-2.51,1.811c-0.62,0.439-1.24,0.89-1.86,1.33c-4.83,3.479-9.76,6.979-14.21,9.819  c-2.48,1.58-4.81,2.96-6.91,4.011c-0.36,0.18-0.71,0.359-1.06,0.52c-1.33,0.62-4.22,1.37-5.66,1.67c-1.65,0.34-4.99,0.84-6.67,0.83  c-2.06-0.02-6.17-0.65-8.17-1.17c-5.44-1.4-16.04-5.34-21-8c-19.12-10.23-70.24-50.02-71.48-50.99  c0.65,0.36,21.69,12.04,26.11,13.66c1.38,0.51,5.2,0.38,5.87,0c0.91-0.51,0.59-2.58-0.16-4.17c-1.02-2.15-4.75-6.4-5.5-8.66  c-0.6-1.79-1.8-4.15-0.75-6.59c0.08-0.19,0.18-0.37,0.3-0.57c0.01-0.02,0.01-0.03,0.03-0.04c0.05-0.09,0.11-0.18,0.18-0.27  c0.13-0.19,0.27-0.37,0.42-0.56c0.62-0.74,1.45-1.5,2.38-2.23c0.11-0.09,0.23-0.18,0.35-0.27c1.62-1.23,3.49-2.36,5.08-3.16  c0.25-0.13,0.5-0.24,0.73-0.35c0.24-0.11,0.46-0.21,0.68-0.3c0.21-0.09,0.42-0.17,0.61-0.24c30.82-11.09,63.82-8.09,95.7-27.42  c3.26-1.99,7.4-9.17,10.33-14.91c2.98,2.63,5.91,5.38,8.78,8.25c8.56,8.56,16.07,17.64,22.49,27l0.08,0.12  c1.97,2.88,3.84,5.78,5.6,8.71C218.193,99.46,222.484,108.25,225.824,117.03z"
   id="path9" />
<g
   id="g11">
	<path
   fill="#1F235A"
   d="M348.393,142.32v31.12h-24.06v-5.19h6.08c0-8.09-0.021-17.54-0.021-25.86h6.15c0,8.36,0.08,17.4,0.08,25.86   h5.71c0.01-8.18,0.06-17.84,0.06-25.93H348.393z"
   id="path13" />
	<path
   fill="#1F235A"
   d="M197.644,152.44v21h-12.06c0,0-0.41,0.319-0.9,0.81c-0.51,0.35-0.94,0.89-1.3,1.71   c-0.05,0.11-0.1,0.23-0.15,0.35c0,0.021-0.01,0.04-0.02,0.061c-1.5,4-4.59,5.35-8.77,4.63v-4.58c1.91-0.56,3.04-1.6,3.66-2.979   c0.55-1.21,0.72-2.681,0.68-4.311c-0.01-0.31-0.01-0.62-0.01-0.939c0-0.181-0.01-0.37-0.01-0.561c0-0.189-0.01-0.39-0.01-0.6   c-0.01-0.57-0.01-1.19-0.02-1.84c-0.05-5.45-0.02-12.75-0.02-12.75h6.87v15.75h5.94v-15.75H197.644z"
   id="path15" />
	<path
   fill="#1F235A"
   d="M184.684,174.25c-0.45,0.45-0.96,1.06-1.3,1.71C183.744,175.14,184.173,174.6,184.684,174.25z"
   id="path17" />
	<rect
   x="414.346"
   y="148"
   fill="#1F235A"
   width="4.53"
   height="4.531"
   id="rect19" />
	<rect
   x="408.284"
   y="148"
   fill="#1F235A"
   width="4.59"
   height="4.531"
   id="rect21" />
	<path
   fill="#1F235A"
   d="M303.333,143.459c1.886,0,3.442,0,5.249,0c0,1.76,0,3.364,0,5.292c-1.564,0-3.214,0-5.249,0   C303.333,147.19,303.333,145.503,303.333,143.459z"
   id="path23" />
	<path
   fill="#1F235A"
   d="M426.833,142.26v31.23h-5.63v-7.431c0-6.63,0.01-13.27,0.01-19.899v-3.9H426.833z"
   id="path25" />
	<path
   fill="#1F235A"
   d="M410.603,155.52l-0.039,12.75l-10.12-0.02c0-2.97,0.09-6.06,0-8.71c-0.07-2.021-2.07-5.92-4.83-6.35   c-7.46-1.171-15.87-0.721-23.25-0.721c0,0.561,0,1.11,0.01,1.65v14.189h-3.06v-8.35h-5.98v5.38c0,0.42-0.02,0.82-0.07,1.19v1.779   h-5.26v-25.75h-6.18v30.931h64.72V155.5L410.603,155.52z M394.143,167.98h-15.329v-9.87c4.25,0,8.449-0.2,12.619,0.149   c0.98,0.08,2.33,1.88,2.591,3.101C394.454,163.37,394.143,165.55,394.143,167.98z"
   id="path27" />
	<path
   fill="#1F235A"
   d="M295.083,143.459c1.886,0,3.442,0,5.249,0c0,1.76,0,3.364,0,5.292c-1.564,0-3.214,0-5.249,0   C295.083,147.19,295.083,145.503,295.083,143.459z"
   id="path29" />
	<path
   fill="#1F235A"
   d="M253.814,142.42v31.39h-4.851c-5.08,0-10.149,0.011-15.229,0.011c-3.851,0-7.69-0.021-11.551-0.051h-0.06   c-1.11-0.01-3.37,0.011-3.37,0.011s-0.16,1.6-0.5,2.55c-0.21,0.58-0.439,1.1-0.71,1.57c-1.58,2.819-4.27,3.83-8.32,3.399   l-0.06-0.24v-4.27c0,0,0.12-0.06,0.32-0.17c0,0,0.01-0.01,0.02-0.01c0.46-0.25,1.3-0.73,1.96-1.261   c0.35-0.279,0.77-0.689,1.08-1.29c0.04-0.09,0.08-0.18,0.12-0.279c0.3-0.721,0.49-1.55,0.52-2.21c0.16-3.66,0.12-7.32,0.11-10.99   c-0.01-0.4-0.01-0.811-0.01-1.21v-6.87h5.3c0.189,0.02,0.391,0.03,0.6,0.05v15.601h16.65c-0.36-3.12,0.32-7.391-1.31-9.03   c0,0,0,0,0-0.01c-0.11-0.11-0.23-0.21-0.36-0.29c-2.71-1.431-6.54-0.71-10.08-0.96c0-1.561-0.25-3.511-0.25-4.94   c3.67-0.22,7.29-0.45,10.39,0.15c5.41,1.05,9.24,4.63,9.03,15.26h4.58v-25.91H253.814z"
   id="path31" />
	<path
   fill="#1F235A"
   d="M320.853,152.38v21c-1.27,0.101-2.359,0.271-3.449,0.271c-8.78,0.02-17.57,0.05-26.351-0.011   c-6.7-0.04-10.04-3.31-10.26-9.89c-0.01-0.2-0.01-0.41-0.01-0.62c0-2.77,0.06-5.55-0.021-8.32v-2.31h5.971v6.11   c0,1.399,0.04,2.79,0.13,4.18c0.26,3.78,2.02,5.33,5.76,5.34c7.39,0.01,14.77,0,22.69,0v-15.75H320.853z"
   id="path33" />
	<path
   fill="#1F235A"
   d="M263.458,173.511c-2.569,0-4.473,0-6.691,0c0-10.296,0-20.438,0-30.76c2.244,0,4.375,0,6.691,0   C263.458,153.041,263.458,163.2,263.458,173.511z"
   id="path35" />
	<rect
   x="214.063"
   y="143.52"
   fill="#1F235A"
   width="5.27"
   height="4.83"
   id="rect37" />
	<rect
   x="202.003"
   y="142.56"
   fill="#1F235A"
   width="6.08"
   height="30.94"
   id="rect39" />
	<rect
   x="229.024"
   y="176.56"
   fill="#1F235A"
   width="5.25"
   height="5.19"
   id="rect41" />
	<polygon
   fill="#1F235A"
   points="193.744,147.16 193.744,147.53 194.144,148.53 196.833,148.78 196.833,150.81 191.644,150.81    190.863,150.22 190.593,149.74 190.454,149.5 190.284,148.99 190.273,148.97 190.454,148.69 190.494,148.69 192.333,148.62    191.894,147.72 191.713,147 191.713,145.97 192.144,144.91 193.173,144.22 196.833,144.22 196.833,146.47 194.423,146.47  "
   id="polygon43" />
</g>
<rect
   x="21.164"
   y="154.5"
   fill="#088141"
   width="17.5"
   height="15.83"
   id="rect45" />
<rect
   x="21.164"
   y="186.67"
   fill="#088141"
   width="17.5"
   height="15.83"
   id="rect47" />
</svg>